<svg width="25" height="25" viewBox="0 0 25 25" fill="none" xmlns="http://www.w3.org/2000/svg">
<path d="M13.0347 19.9458C15.052 19.6891 16.8958 18.6739 18.1915 17.1066C19.4871 15.5392 20.1374 13.5373 20.01 11.5078C19.8827 9.47822 18.9873 7.5733 17.5059 6.18019C16.0245 4.78708 14.0682 4.01033 12.0347 4.00781C9.99863 4.0063 8.03862 4.78115 6.55401 6.17449C5.0694 7.56783 4.17191 9.47481 4.04441 11.5069C3.91691 13.5389 4.569 15.5431 5.86781 17.1111C7.16662 18.6791 9.01441 19.6928 11.0347 19.9458V14.0078H9.03467V12.0078H11.0347V10.3538C11.0347 9.01681 11.1747 8.53181 11.4347 8.04281C11.6908 7.559 12.0866 7.1635 12.5707 6.90781C12.9527 6.70281 13.4277 6.57981 14.2577 6.52681C14.5867 6.50581 15.0127 6.53181 15.5357 6.60681V8.50681H15.0347C14.1177 8.50681 13.7387 8.54981 13.5127 8.67081C13.3778 8.74017 13.268 8.84996 13.1987 8.98481C13.0787 9.21081 13.0347 9.43481 13.0347 10.3528V12.0078H15.5347L15.0347 14.0078H13.0347V19.9458ZM12.0347 22.0078C6.51167 22.0078 2.03467 17.5308 2.03467 12.0078C2.03467 6.48481 6.51167 2.00781 12.0347 2.00781C17.5577 2.00781 22.0347 6.48481 22.0347 12.0078C22.0347 17.5308 17.5577 22.0078 12.0347 22.0078Z" fill="#3F4451"/>
</svg>
