<svg width="25" height="25" viewBox="0 0 25 25" fill="none" xmlns="http://www.w3.org/2000/svg">
<path d="M12.0347 9.00781C11.239 9.00781 10.476 9.32388 9.91335 9.88649C9.35074 10.4491 9.03467 11.2122 9.03467 12.0078C9.03467 12.8035 9.35074 13.5665 9.91335 14.1291C10.476 14.6917 11.239 15.0078 12.0347 15.0078C12.8303 15.0078 13.5934 14.6917 14.156 14.1291C14.7186 13.5665 15.0347 12.8035 15.0347 12.0078C15.0347 11.2122 14.7186 10.4491 14.156 9.88649C13.5934 9.32388 12.8303 9.00781 12.0347 9.00781ZM12.0347 7.00781C13.3608 7.00781 14.6325 7.5346 15.5702 8.47228C16.5079 9.40996 17.0347 10.6817 17.0347 12.0078C17.0347 13.3339 16.5079 14.6057 15.5702 15.5433C14.6325 16.481 13.3608 17.0078 12.0347 17.0078C10.7086 17.0078 9.43682 16.481 8.49913 15.5433C7.56145 14.6057 7.03467 13.3339 7.03467 12.0078C7.03467 10.6817 7.56145 9.40996 8.49913 8.47228C9.43682 7.5346 10.7086 7.00781 12.0347 7.00781ZM18.5347 6.75781C18.5347 7.08933 18.403 7.40728 18.1686 7.6417C17.9341 7.87612 17.6162 8.00781 17.2847 8.00781C16.9531 8.00781 16.6352 7.87612 16.4008 7.6417C16.1664 7.40728 16.0347 7.08933 16.0347 6.75781C16.0347 6.42629 16.1664 6.10835 16.4008 5.87393C16.6352 5.63951 16.9531 5.50781 17.2847 5.50781C17.6162 5.50781 17.9341 5.63951 18.1686 5.87393C18.403 6.10835 18.5347 6.42629 18.5347 6.75781ZM12.0347 4.00781C9.56067 4.00781 9.15667 4.01481 8.00567 4.06581C7.22167 4.10281 6.69567 4.20781 6.20767 4.39781C5.77367 4.56581 5.46067 4.76681 5.12767 5.10081C4.81467 5.40321 4.57402 5.7724 4.42367 6.18081C4.23367 6.67081 4.12867 7.19581 4.09267 7.97881C4.04067 9.08281 4.03467 9.46881 4.03467 12.0078C4.03467 14.4818 4.04167 14.8858 4.09267 16.0368C4.12967 16.8198 4.23467 17.3468 4.42367 17.8338C4.59367 18.2688 4.79367 18.5818 5.12567 18.9138C5.46267 19.2498 5.77567 19.4508 6.20567 19.6168C6.69967 19.8078 7.22567 19.9138 8.00567 19.9498C9.10967 20.0018 9.49567 20.0078 12.0347 20.0078C14.5087 20.0078 14.9127 20.0008 16.0637 19.9498C16.8457 19.9128 17.3727 19.8078 17.8607 19.6188C18.2937 19.4498 18.6087 19.2488 18.9407 18.9168C19.2777 18.5798 19.4787 18.2668 19.6447 17.8368C19.8347 17.3438 19.9407 16.8168 19.9767 16.0368C20.0287 14.9328 20.0347 14.5468 20.0347 12.0078C20.0347 9.53381 20.0277 9.12981 19.9767 7.97881C19.9397 7.19681 19.8347 6.66881 19.6447 6.18081C19.494 5.77281 19.2537 5.40377 18.9417 5.10081C18.6394 4.78766 18.2702 4.54698 17.8617 4.39681C17.3717 4.20681 16.8457 4.10181 16.0637 4.06581C14.9597 4.01381 14.5737 4.00781 12.0347 4.00781ZM12.0347 2.00781C14.7517 2.00781 15.0907 2.01781 16.1567 2.06781C17.2217 2.11781 17.9467 2.28481 18.5847 2.53281C19.2447 2.78681 19.8007 3.13081 20.3567 3.68581C20.8652 4.18571 21.2586 4.7904 21.5097 5.45781C21.7567 6.09481 21.9247 6.82081 21.9747 7.88581C22.0217 8.95181 22.0347 9.29081 22.0347 12.0078C22.0347 14.7248 22.0247 15.0638 21.9747 16.1298C21.9247 17.1948 21.7567 17.9198 21.5097 18.5578C21.2593 19.2256 20.8658 19.8304 20.3567 20.3298C19.8566 20.8381 19.252 21.2316 18.5847 21.4828C17.9477 21.7298 17.2217 21.8978 16.1567 21.9478C15.0907 21.9948 14.7517 22.0078 12.0347 22.0078C9.31767 22.0078 8.97867 21.9978 7.91267 21.9478C6.84767 21.8978 6.12267 21.7298 5.48467 21.4828C4.81699 21.2323 4.2122 20.8388 3.71267 20.3298C3.20407 19.83 2.8106 19.2253 2.55967 18.5578C2.31167 17.9208 2.14467 17.1948 2.09467 16.1298C2.04767 15.0638 2.03467 14.7248 2.03467 12.0078C2.03467 9.29081 2.04467 8.95181 2.09467 7.88581C2.14467 6.81981 2.31167 6.09581 2.55967 5.45781C2.8099 4.78999 3.20347 4.18513 3.71267 3.68581C4.21234 3.17704 4.8171 2.78354 5.48467 2.53281C6.12267 2.28481 6.84667 2.11781 7.91267 2.06781C8.97867 2.02081 9.31767 2.00781 12.0347 2.00781Z" fill="#3F4451"/>
</svg>
