<svg width="25" height="25" viewBox="0 0 25 25" fill="none" xmlns="http://www.w3.org/2000/svg">
<path d="M4.03467 3.00781H20.0347C20.2999 3.00781 20.5542 3.11317 20.7418 3.30071C20.9293 3.48824 21.0347 3.7426 21.0347 4.00781V20.0078C21.0347 20.273 20.9293 20.5274 20.7418 20.7149C20.5542 20.9025 20.2999 21.0078 20.0347 21.0078H4.03467C3.76945 21.0078 3.5151 20.9025 3.32756 20.7149C3.14002 20.5274 3.03467 20.273 3.03467 20.0078V4.00781C3.03467 3.7426 3.14002 3.48824 3.32756 3.30071C3.5151 3.11317 3.76945 3.00781 4.03467 3.00781ZM5.03467 5.00781V19.0078H19.0347V5.00781H5.03467ZM7.53467 9.00781C7.13684 9.00781 6.75531 8.84978 6.47401 8.56847C6.1927 8.28717 6.03467 7.90564 6.03467 7.50781C6.03467 7.10999 6.1927 6.72846 6.47401 6.44715C6.75531 6.16585 7.13684 6.00781 7.53467 6.00781C7.93249 6.00781 8.31402 6.16585 8.59533 6.44715C8.87663 6.72846 9.03467 7.10999 9.03467 7.50781C9.03467 7.90564 8.87663 8.28717 8.59533 8.56847C8.31402 8.84978 7.93249 9.00781 7.53467 9.00781ZM6.53467 10.0078H8.53467V17.5078H6.53467V10.0078ZM12.0347 10.4378C12.6187 9.87281 13.3007 9.50781 14.0347 9.50781C16.1057 9.50781 17.5347 11.1868 17.5347 13.2578V17.5078H15.5347V13.2578C15.5347 12.7937 15.3503 12.3486 15.0221 12.0204C14.6939 11.6922 14.2488 11.5078 13.7847 11.5078C13.3205 11.5078 12.8754 11.6922 12.5472 12.0204C12.219 12.3486 12.0347 12.7937 12.0347 13.2578V17.5078H10.0347V10.0078H12.0347V10.4378Z" fill="#0A66C2"/>
</svg>
