<?xml version="1.0" standalone="no"?>
<!DOCTYPE svg PUBLIC "-//W3C//DTD SVG 20010904//EN"
 "http://www.w3.org/TR/2001/REC-SVG-20010904/DTD/svg10.dtd">
<svg version="1.0" xmlns="http://www.w3.org/2000/svg"
 width="1723.000000pt" height="1723.000000pt" viewBox="0 0 1723.000000 1723.000000"
 preserveAspectRatio="xMidYMid meet">
<metadata>
Created by potrace 1.14, written by Peter Selinger 2001-2017
</metadata>
<g transform="translate(0.000000,1723.000000) scale(0.100000,-0.100000)"
fill="#000000" stroke="none">
<path d="M9673 16023 c-22 -8 -14 -19 12 -19 14 0 25 3 25 7 0 10 -23 17 -37
12z"/>
<path d="M9618 15992 c-20 -2 -28 -9 -28 -24 0 -13 -5 -18 -14 -15 -8 3 -22
-1 -33 -9 -10 -9 -12 -13 -5 -9 7 4 12 0 12 -9 0 -9 -3 -15 -7 -15 -23 4 -33
-3 -33 -21 0 -14 -7 -20 -25 -21 -40 -2 -45 -4 -45 -11 0 -5 0 -11 0 -14 0 -4
6 -1 13 5 10 8 14 7 14 -3 0 -7 -10 -13 -21 -12 -15 1 -21 -5 -20 -19 1 -12
-6 -22 -15 -23 -36 -4 -52 -9 -51 -15 0 -4 0 -10 0 -13 0 -4 6 -1 13 5 10 8
14 7 14 -3 0 -8 -8 -13 -19 -11 -10 2 -18 0 -18 -5 0 -5 -9 -7 -20 -5 -15 3
-20 -2 -20 -20 0 -13 -5 -27 -12 -31 -7 -4 -8 -3 -4 4 4 7 1 12 -8 12 -9 0
-16 -9 -16 -20 0 -13 -7 -20 -20 -20 -13 0 -20 -7 -20 -20 0 -12 -7 -20 -16
-20 -11 0 -14 4 -8 13 5 7 1 5 -8 -5 -9 -10 -20 -17 -25 -16 -4 2 -9 -1 -10
-7 -2 -5 1 -10 6 -10 5 0 12 -3 16 -7 4 -3 -1 -5 -12 -4 -10 2 -24 -4 -31 -13
-8 -9 -11 -10 -7 -3 4 7 0 12 -9 12 -9 0 -16 -9 -16 -20 0 -14 -7 -20 -22 -22
-13 0 -29 -2 -35 -2 -15 -1 -18 -21 -4 -21 5 0 12 -3 16 -7 4 -3 -1 -5 -12 -4
-10 2 -24 -4 -31 -13 -8 -9 -11 -10 -7 -3 4 7 0 12 -9 12 -9 0 -16 -9 -16 -20
0 -14 -7 -20 -25 -21 -40 -2 -45 -4 -45 -11 0 -5 0 -11 0 -14 0 -4 7 -1 15 6
10 9 15 9 15 1 0 -6 -3 -11 -7 -12 -5 0 -17 -2 -28 -5 -11 -2 -35 -5 -53 -6
-21 -1 -28 -4 -20 -9 10 -7 10 -9 -1 -9 -8 0 -11 -3 -8 -6 4 -4 13 -2 20 4 10
9 14 9 14 -1 0 -12 -29 -18 -94 -20 -14 -1 -23 -7 -23 -17 0 -16 -5 -19 -55
-22 -17 -1 -25 -8 -25 -20 0 -14 -8 -18 -40 -18 -45 0 -43 -4 -40 113 1 51 -1
58 -17 55 -15 -2 -18 4 -19 42 -1 25 3 51 10 59 8 12 8 13 -1 7 -10 -5 -13 6
-14 46 -1 29 -1 58 0 64 1 7 -6 14 -14 18 -11 4 -14 2 -9 -6 4 -7 3 -8 -4 -4
-16 9 -15 39 1 55 10 11 10 13 0 7 -9 -5 -13 0 -13 12 0 18 -6 19 -62 15 -35
-2 -72 -4 -83 -4 -16 0 -17 -2 -5 -9 12 -8 13 -10 1 -10 -8 0 -11 -3 -8 -6 4
-4 13 -2 20 4 10 9 14 8 14 -3 0 -7 -3 -14 -6 -13 -3 0 -21 0 -40 -1 -25 -1
-32 -5 -27 -16 3 -8 2 -15 -2 -16 -4 0 -15 -2 -24 -5 -10 -2 -25 -5 -33 -7
-15 -3 -19 -17 -8 -27 4 -3 3 0 0 6 -3 6 0 11 8 11 12 0 23 -16 13 -17 -2 -1
-21 -3 -43 -6 -22 -3 -44 -11 -50 -16 -7 -8 -6 -9 3 -4 7 5 12 1 12 -10 0 -10
-3 -14 -7 -11 -3 4 -17 0 -31 -9 -13 -9 -21 -11 -18 -5 4 6 0 11 -8 11 -9 0
-16 -9 -16 -20 0 -14 -7 -20 -25 -21 -40 -2 -45 -4 -45 -11 0 -5 0 -11 0 -14
0 -4 7 -1 15 6 10 9 15 9 15 1 0 -10 -13 -15 -25 -8 -2 1 -11 -7 -20 -18 -9
-11 -14 -14 -10 -7 4 7 0 12 -9 12 -9 0 -16 -9 -16 -20 0 -19 -10 -23 -62 -23
-11 0 -18 -7 -18 -18 0 -15 -8 -19 -40 -19 -33 0 -40 -3 -40 -20 0 -11 -3 -19
-7 -19 -5 1 -23 1 -40 0 -26 -1 -33 -5 -33 -21 0 -17 -7 -20 -40 -20 -33 0
-40 -3 -40 -20 0 -11 -3 -19 -7 -19 -5 1 -23 1 -40 0 -26 -1 -33 -5 -33 -21 0
-12 -6 -20 -12 -19 -44 5 -68 -2 -68 -21 0 -17 -7 -20 -40 -20 -33 0 -40 -3
-40 -20 0 -11 -3 -19 -7 -19 -5 1 -32 1 -60 0 -47 -1 -53 -3 -53 -23 0 -12 -3
-18 -7 -15 -3 4 -17 0 -31 -9 -13 -9 -21 -11 -18 -5 4 6 0 11 -8 11 -9 0 -16
-9 -16 -20 0 -19 -10 -23 -62 -23 -10 0 -18 -7 -18 -16 0 -13 -10 -18 -37 -19
-54 -4 -68 -7 -70 -15 -6 -16 -2 -19 10 -8 10 8 14 7 14 -2 0 -7 -15 -13 -34
-14 -19 -1 -42 -8 -51 -15 -12 -10 -14 -10 -8 0 4 7 1 12 -8 12 -9 0 -16 -9
-16 -20 0 -19 -10 -23 -62 -23 -11 0 -18 -7 -18 -18 0 -15 -8 -19 -40 -19 -33
0 -40 -3 -40 -20 0 -20 -17 -25 -62 -21 -12 2 -18 -5 -18 -17 0 -18 -5 -20
-54 -24 -14 -1 -23 -5 -21 -8 9 -15 -15 -31 -49 -32 -23 -1 -32 -4 -24 -9 10
-7 10 -9 -1 -9 -8 0 -11 -3 -8 -6 4 -4 13 -2 20 4 10 9 14 8 14 -1 0 -14 -9
-16 -59 -18 -15 0 -31 -5 -34 -11 -4 -6 -2 -8 3 -5 6 4 16 1 21 -6 9 -10 6
-13 -11 -14 -37 -1 -72 -10 -69 -16 1 -4 2 -10 2 -13 0 -4 6 -1 13 5 10 8 14
7 14 -3 0 -8 -8 -13 -19 -11 -10 2 -18 0 -18 -5 0 -4 -9 -6 -20 -3 -15 4 -20
0 -20 -16 0 -15 -7 -21 -22 -23 -13 0 -29 -2 -35 -2 -15 -1 -18 -21 -4 -21 5
0 13 -3 17 -7 3 -4 -3 -6 -15 -3 -11 2 -21 0 -21 -6 0 -5 -3 -8 -7 -8 -21 3
-33 -2 -33 -16 0 -9 -9 -15 -24 -15 -14 0 -28 -5 -32 -12 -4 -7 -3 -8 4 -4 7
4 12 1 12 -7 0 -14 -5 -15 -56 -18 -19 -1 -22 -4 -13 -10 12 -7 12 -9 0 -9 -8
0 -11 -3 -8 -6 4 -4 13 -2 20 4 10 9 14 9 14 -1 0 -7 -7 -14 -16 -15 -39 -4
-56 -9 -53 -15 1 -4 2 -10 2 -13 0 -4 6 -1 13 5 10 8 14 7 14 -3 0 -8 -8 -13
-19 -11 -10 2 -18 0 -18 -5 0 -4 -9 -6 -20 -3 -16 4 -20 0 -20 -20 0 -20 -4
-24 -20 -20 -15 4 -20 0 -20 -16 0 -11 -3 -20 -7 -20 -23 4 -33 -3 -33 -21 0
-19 -9 -23 -61 -23 -10 0 -16 -8 -15 -21 1 -14 -5 -21 -16 -21 -10 0 -18 -5
-18 -10 0 -6 4 -10 9 -10 5 0 12 -3 16 -6 3 -4 -5 -6 -17 -5 -17 1 -23 -4 -22
-20 1 -21 -2 -22 -52 -25 -19 -1 -22 -4 -13 -10 12 -7 12 -9 0 -9 -8 0 -11 -3
-8 -6 4 -4 13 -2 20 4 10 9 14 8 14 -1 0 -8 -5 -14 -11 -15 -6 -1 -22 -3 -36
-5 -14 -2 -26 -9 -26 -15 -1 -7 -2 -23 -3 -37 -1 -16 -7 -25 -17 -25 -14 0
-15 2 -3 18 13 15 12 16 -3 3 -10 -7 -18 -26 -18 -42 0 -15 -5 -31 -12 -35 -7
-4 -8 -3 -4 4 4 7 1 12 -8 12 -10 0 -16 -10 -17 -25 -2 -45 -4 -48 -21 -52
-10 -1 -26 -4 -35 -6 -17 -4 -21 -16 -25 -78 -2 -20 -7 -36 -13 -37 -5 -1 -21
-3 -34 -5 -14 -2 -25 -11 -27 -21 -2 -13 1 -15 11 -6 10 8 15 8 20 0 4 -6 4
-14 1 -17 -3 -4 -6 -1 -6 6 0 26 -32 -21 -34 -49 0 -15 -3 -28 -6 -28 -24 2
-30 -6 -30 -42 0 -33 -3 -40 -20 -40 -11 0 -20 5 -20 11 0 5 4 8 9 4 5 -3 13
-1 16 5 4 6 1 9 -7 8 -7 -2 -14 7 -16 20 -2 14 -8 20 -15 16 -8 -5 -8 -2 1 7
19 21 15 49 -8 49 -16 0 -20 7 -20 36 0 27 -5 37 -20 41 -17 5 -20 13 -19 58
2 59 -5 77 -26 68 -12 -4 -15 6 -15 56 0 50 -3 61 -16 61 -14 0 -15 -2 -3 -17
13 -17 12 -17 -4 -4 -12 9 -17 23 -14 38 4 21 1 23 -38 20 -35 -2 -42 -5 -41
-22 1 -14 -5 -20 -20 -19 -14 1 -20 -5 -21 -20 -5 -73 -7 -85 -18 -90 -6 -2
-12 2 -12 10 0 7 5 10 10 7 6 -4 7 -1 3 6 -15 23 -23 1 -28 -70 -2 -29 -7 -36
-23 -35 -15 1 -20 -5 -19 -21 1 -12 -1 -22 -5 -21 -22 2 -31 -5 -31 -27 0 -19
-5 -25 -16 -23 -17 3 -22 -9 -26 -74 -2 -20 -5 -35 -8 -33 -15 9 -31 -15 -33
-47 -1 -20 -4 -35 -7 -33 -14 9 -31 -15 -32 -43 -1 -18 -5 -33 -10 -33 -12 -2
-27 -6 -33 -9 -3 -1 -10 -3 -17 -4 -14 -1 -19 -54 -6 -62 5 -3 7 0 6 7 -2 6 3
13 10 15 7 1 8 0 2 -3 -8 -3 -8 -9 0 -18 8 -9 5 -12 -12 -11 -18 1 -23 -4 -22
-21 1 -13 -2 -21 -5 -18 -15 9 -32 -14 -34 -47 -1 -20 -7 -35 -14 -35 -9 0
-10 4 -2 13 7 8 7 14 -1 19 -5 3 -10 5 -11 3 -5 -22 -9 -50 -11 -80 -2 -20 -5
-36 -8 -36 -22 2 -30 -6 -30 -27 0 -19 -5 -25 -16 -23 -17 3 -22 -9 -26 -73
-2 -20 -8 -36 -15 -36 -9 0 -10 4 -2 13 7 8 7 14 -1 19 -5 3 -10 5 -11 3 -5
-22 -9 -50 -11 -80 -2 -20 -5 -36 -8 -36 -22 2 -30 -6 -30 -27 0 -19 -5 -25
-17 -23 -18 3 -18 3 -22 -92 -1 -23 -5 -30 -18 -28 -18 3 -18 7 -24 -144 -1
-43 -7 -78 -12 -78 -4 0 -5 -6 0 -12 4 -7 8 -22 10 -33 1 -11 -1 -15 -3 -8 -3
7 -12 9 -20 6 -12 -4 -12 -8 3 -19 17 -13 17 -14 1 -8 -16 5 -18 -1 -19 -57
-1 -35 0 -74 1 -87 1 -13 -4 -30 -12 -39 -9 -12 -10 -15 0 -9 8 5 12 0 12 -13
0 -12 -5 -21 -11 -21 -5 0 -7 6 -3 13 6 9 4 9 -7 -1 -14 -13 -22 -92 -8 -92 4
0 6 9 4 20 -2 11 0 18 4 16 4 -3 8 1 8 9 0 8 -5 11 -10 8 -6 -4 -7 -1 -3 6 10
15 19 7 23 -19 2 -11 -2 -20 -8 -20 -6 0 -7 -5 -2 -12 12 -20 14 -48 4 -48 -6
0 -8 9 -6 19 3 15 0 18 -13 14 -10 -4 -12 -8 -4 -11 7 -2 9 -9 5 -15 -10 -17
-12 -87 -2 -87 4 0 6 9 4 20 -2 11 0 18 4 16 4 -3 8 1 8 9 0 8 -5 11 -10 8 -6
-4 -7 -1 -3 6 10 15 19 7 23 -19 2 -11 -2 -20 -8 -20 -6 0 -7 -5 -2 -12 12
-20 14 -48 4 -48 -6 0 -8 9 -6 19 3 15 0 18 -13 14 -10 -4 -12 -8 -4 -11 7 -2
9 -9 5 -15 -10 -17 -12 -87 -2 -87 4 0 6 9 4 20 -2 11 0 18 4 16 4 -3 8 1 8 9
0 8 -5 11 -10 8 -6 -4 -7 -1 -3 6 10 15 19 7 23 -19 2 -11 -2 -20 -8 -20 -6 0
-7 -5 -2 -12 12 -20 14 -48 4 -48 -6 0 -8 9 -6 19 3 15 0 18 -13 14 -10 -4
-12 -8 -4 -11 7 -2 9 -9 5 -15 -10 -17 -12 -87 -2 -87 4 0 6 9 4 20 -2 11 0
18 4 16 4 -3 8 1 8 9 0 8 -5 11 -10 8 -6 -4 -7 -1 -3 6 10 15 19 7 23 -19 2
-11 -2 -20 -8 -20 -6 0 -7 -5 -2 -12 12 -20 14 -48 4 -48 -6 0 -8 9 -6 19 3
15 0 18 -13 14 -10 -4 -12 -8 -4 -11 7 -2 9 -9 5 -15 -10 -15 -11 -77 -2 -72
25 16 39 -105 16 -134 -9 -12 -9 -13 1 -7 9 5 12 -15 12 -89 0 -81 2 -96 15
-92 8 4 17 2 20 -4 4 -5 3 -9 -2 -8 -28 5 -33 -4 -33 -61 0 -33 4 -60 10 -60
6 0 10 5 10 12 0 17 11 3 14 -19 2 -10 -2 -24 -8 -32 -8 -11 -8 -13 2 -7 7 4
12 1 12 -9 0 -9 -4 -14 -8 -11 -5 3 -9 -1 -9 -9 0 -8 4 -12 9 -9 4 3 8 -2 8
-11 0 -9 -4 -14 -8 -11 -5 3 -9 -1 -9 -9 0 -8 4 -12 9 -9 4 3 8 -27 8 -66 0
-54 3 -69 13 -64 10 6 10 4 0 -7 -7 -7 -13 -19 -13 -27 0 -12 3 -12 18 -1 15
12 16 12 5 -2 -7 -9 -9 -20 -5 -24 4 -5 1 -5 -6 -1 -9 6 -11 -3 -9 -36 3 -32
8 -42 19 -40 13 2 16 -16 18 -115 1 -65 3 -127 3 -139 1 -22 24 -30 24 -8 0 7
-4 11 -9 8 -4 -3 -5 2 -2 11 14 36 22 -2 23 -108 1 -43 5 -76 9 -73 5 3 9 -1
9 -9 0 -8 -4 -12 -9 -9 -4 3 -7 -12 -5 -34 1 -21 7 -39 13 -39 6 0 11 6 11 13
0 7 -4 11 -9 8 -4 -3 -5 2 -2 11 14 36 22 -2 23 -113 1 -63 4 -82 14 -76 10 6
10 4 0 -7 -19 -19 -16 -36 6 -42 17 -4 20 -14 20 -81 0 -78 6 -101 21 -91 5 3
11 1 15 -4 3 -6 -4 -8 -15 -6 -18 4 -20 0 -16 -26 6 -38 12 -45 20 -24 3 9 2
14 -2 11 -5 -3 -9 1 -9 8 0 7 5 13 11 13 8 0 13 -41 15 -121 2 -122 6 -141 21
-131 5 3 11 1 15 -4 3 -6 -3 -8 -14 -6 -16 3 -19 -2 -19 -26 1 -30 11 -38 24
-17 4 6 3 8 -3 5 -5 -3 -10 0 -10 7 0 8 6 12 13 9 7 -2 13 -12 12 -21 0 -9 1
-70 2 -134 1 -109 3 -118 21 -118 22 0 26 -29 7 -49 -10 -11 -10 -13 0 -7 12
7 12 4 15 -106 0 -20 3 -36 6 -36 25 2 31 -6 31 -43 0 -24 4 -38 10 -34 6 3
10 1 10 -4 0 -6 -4 -11 -10 -11 -5 0 -10 -7 -10 -16 0 -10 6 -14 14 -11 17 7
26 -13 26 -55 0 -22 4 -29 14 -25 15 6 27 -13 25 -41 0 -11 -2 -12 -6 -4 -2 6
-9 9 -14 6 -6 -3 -5 -12 3 -22 11 -15 10 -14 -8 0 -11 10 -35 19 -52 21 -18 2
-32 8 -32 13 0 5 4 9 9 9 5 0 12 3 16 6 3 4 -5 6 -17 5 -18 -1 -23 4 -22 21 1
12 -1 22 -5 21 -26 -3 -39 4 -36 20 2 14 -4 18 -39 18 -22 0 -52 2 -66 3 -61
7 -90 1 -90 -17 0 -18 -4 -20 -56 -23 -19 -1 -22 -4 -13 -10 12 -7 12 -9 0 -9
-8 0 -11 -3 -8 -6 4 -4 13 -2 20 4 10 9 14 9 14 -1 0 -7 -7 -14 -16 -15 -57
-7 -59 -8 -63 -79 0 -18 -5 -33 -10 -33 -4 0 -7 4 -6 9 2 5 -1 8 -7 7 -9 -1
-12 -24 -19 -151 -2 -38 -4 -74 -5 -79 -2 -17 -12 1 -17 30 -3 20 -1 25 5 15
6 -9 8 1 7 30 -1 24 -6 44 -11 44 -6 0 -11 -77 -13 -174 -3 -142 -1 -172 10
-166 10 6 11 5 1 -6 -7 -7 -13 -19 -13 -27 0 -12 3 -12 18 -1 15 12 16 12 5
-2 -7 -9 -9 -20 -5 -24 4 -5 1 -5 -5 -1 -8 4 -13 1 -13 -9 0 -9 4 -14 8 -11 5
3 9 -1 9 -9 0 -8 -4 -12 -8 -9 -4 2 -7 -22 -6 -54 1 -33 7 -59 13 -59 5 0 10
11 10 23 0 12 -3 21 -7 18 -9 -5 -3 35 6 44 12 12 13 -81 1 -97 -9 -11 -8 -13
2 -7 11 6 13 0 12 -25 -1 -19 -2 -71 -1 -117 1 -73 3 -83 18 -80 19 3 20 -5
22 -139 1 -56 3 -63 21 -63 23 0 27 -28 8 -49 -10 -11 -10 -13 0 -7 9 5 12 -7
13 -46 1 -29 0 -63 -1 -75 -1 -17 4 -23 19 -23 19 0 21 -6 22 -82 1 -46 1 -90
0 -99 -1 -9 5 -16 13 -16 11 0 13 4 6 12 -5 6 -5 17 -1 24 6 9 11 10 15 2 4
-6 2 -11 -5 -11 -8 0 -9 -4 -1 -13 17 -21 18 -127 1 -138 -19 -12 -2 -11 21 1
20 11 38 -4 19 -16 -8 -4 -7 -9 2 -16 11 -8 11 -9 -1 -5 -8 2 -14 11 -12 18 2
10 -1 10 -10 -2 -11 -14 -49 -16 -278 -17 -146 0 -277 -3 -293 -5 -27 -4 -35
-13 -21 -25 4 -4 4 -1 -1 7 -6 10 -4 12 4 7 15 -10 6 -21 -20 -22 -10 -1 -23
-2 -29 -3 -5 0 -10 -12 -10 -25 0 -19 -4 -22 -24 -19 -21 4 -24 2 -19 -16 4
-16 1 -21 -16 -21 -14 0 -21 -6 -21 -20 0 -18 -11 -25 -33 -21 -5 1 -6 -3 -2
-8 3 -6 11 -8 19 -5 7 3 13 -2 13 -11 0 -10 -6 -13 -18 -10 -17 6 -18 -13 -19
-367 0 -248 3 -368 10 -358 6 9 10 10 10 3 0 -6 -4 -14 -9 -17 -5 -3 -8 -37
-8 -75 0 -39 4 -68 7 -66 4 3 6 22 5 44 -2 32 0 37 10 28 8 -8 10 -16 4 -24
-6 -6 -6 -14 -1 -17 5 -3 8 -20 8 -38 -2 -25 -6 -32 -19 -30 -9 2 -17 -2 -17
-8 0 -5 3 -9 8 -9 20 3 28 -3 30 -28 1 -14 -1 -23 -5 -19 -5 4 -8 13 -8 18 0
6 -6 12 -13 14 -7 1 -8 0 -2 -3 7 -3 7 -10 -2 -21 -11 -13 -11 -14 1 -7 11 6
13 4 8 -8 -4 -10 -2 -14 7 -11 9 3 12 -7 12 -38 -1 -30 -5 -42 -14 -40 -8 1
-11 -2 -7 -8 3 -6 11 -8 16 -5 5 4 9 -595 9 -1519 0 -1109 -3 -1527 -11 -1532
-8 -4 -7 -9 2 -15 10 -6 8 -8 -6 -8 -28 1 -53 -6 -62 -16 -4 -4 -2 -5 4 -1 7
4 13 2 13 -4 0 -6 5 -8 12 -4 7 4 8 3 4 -4 -4 -6 -13 -9 -21 -5 -11 4 -15 -2
-15 -20 0 -14 -7 -27 -15 -31 -17 -6 -20 4 -5 22 6 7 3 6 -5 -1 -8 -7 -16 -31
-18 -53 -1 -31 -6 -40 -21 -42 -10 0 -24 -6 -30 -13 -8 -9 -8 -10 2 -5 7 5 12
1 12 -9 0 -9 -4 -14 -8 -11 -16 10 -33 -12 -34 -42 -1 -18 -5 -33 -10 -33 -12
-2 -27 -6 -33 -9 -3 -1 -10 -3 -17 -4 -12 -1 -16 -18 -20 -78 -2 -20 -5 -35
-8 -33 -15 9 -31 -15 -33 -47 -2 -28 -6 -35 -22 -34 -15 1 -20 -5 -19 -21 1
-13 -2 -21 -5 -18 -16 9 -32 -14 -34 -47 -1 -20 -4 -35 -7 -33 -14 9 -31 -15
-32 -43 -1 -18 -7 -33 -16 -37 -12 -4 -12 -3 -3 9 8 10 9 16 1 21 -5 3 -10 5
-11 3 -5 -23 -9 -49 -11 -75 0 -18 -8 -35 -16 -38 -12 -4 -12 -3 -3 9 8 10 9
16 1 21 -5 3 -10 5 -11 3 -5 -22 -9 -49 -11 -79 -2 -20 -8 -36 -15 -36 -9 0
-10 4 -2 13 7 8 7 14 -1 19 -12 8 -11 12 -17 -60 -2 -33 -9 -64 -15 -70 -8 -7
-9 -6 -4 2 5 8 2 11 -7 7 -13 -5 -18 -38 -20 -151 -1 -23 -5 -39 -9 -37 -4 3
-8 0 -8 -6 0 -6 -4 -8 -10 -5 -6 4 -10 -19 -11 -59 -2 -84 -2 -83 -18 -98 -10
-10 -12 -10 -7 0 4 6 2 12 -3 12 -7 0 -11 -32 -11 -85 l0 -85 340 0 340 0 1
-237 c0 -131 2 -250 4 -264 18 -139 117 -242 239 -251 20 -1 36 -5 36 -8 0 -3
531 -4 1181 -4 1090 2 1180 1 1175 -15 -5 -14 -5 -14 7 1 18 23 80 22 72 -1
-4 -14 -4 -14 8 0 11 14 39 17 205 17 174 0 193 -2 188 -17 -5 -14 -4 -14 7 1
16 20 81 22 73 3 -3 -9 2 -11 16 -7 15 4 17 7 6 14 -8 5 1 8 27 6 22 -2 40 -8
40 -15 0 -6 3 -15 7 -19 4 -3 6 2 4 13 -4 18 4 19 151 20 139 1 154 -1 149
-15 -5 -15 -5 -15 7 0 18 23 80 22 72 -1 -4 -14 -4 -14 8 0 11 14 39 17 205
17 175 0 193 -2 188 -17 -5 -13 -4 -13 8 2 15 20 80 21 72 1 -3 -8 3 -10 16
-6 15 4 17 7 6 14 -8 5 1 8 27 6 22 -2 40 -8 40 -15 0 -6 3 -15 7 -19 4 -3 6
2 4 13 -4 18 4 19 151 20 139 1 154 -1 149 -15 -5 -14 -4 -14 8 1 18 23 79 21
71 -3 -4 -12 -3 -12 8 1 10 14 36 16 155 17 101 0 142 -3 142 -11 0 -8 3 -9 8
-1 4 5 26 11 50 11 37 1 43 -1 38 -15 -6 -16 -5 -16 7 0 18 23 80 22 72 -1 -4
-14 -4 -14 8 0 11 15 124 17 1325 17 1211 0 1313 -2 1308 -17 -5 -14 -5 -14 7
1 18 23 80 22 72 -1 -4 -14 -4 -14 8 0 11 14 39 17 205 17 174 0 193 -2 188
-17 -5 -14 -4 -14 7 1 16 20 81 22 73 3 -3 -9 2 -11 16 -7 15 4 17 7 6 14 -8
5 1 8 27 6 22 -2 40 -8 40 -15 0 -6 3 -15 7 -19 4 -3 6 2 4 13 -4 18 4 19 151
20 139 1 154 -1 149 -15 -5 -15 -5 -15 7 0 18 23 80 22 72 -1 -5 -14 -4 -14 8
0 10 14 38 16 180 17 124 0 165 -3 160 -11 -4 -7 0 -7 9 1 10 8 39 12 70 12
62 -2 146 13 187 34 74 39 137 131 145 213 3 21 5 145 5 276 l1 237 299 0 300
0 -3 40 c-2 39 -17 56 -22 25 -1 -8 2 -12 8 -9 7 4 8 2 4 -5 -13 -20 -22 -3
-25 45 -1 30 3 50 11 55 10 7 10 9 1 9 -8 0 -13 14 -13 36 0 27 -5 37 -20 41
-27 7 -26 23 1 18 12 -3 18 -1 15 3 -4 4 -13 7 -19 7 -8 0 -13 24 -15 68 -2
58 -6 67 -21 67 -15 0 -19 8 -19 34 0 40 -9 59 -23 50 -6 -3 -5 -12 3 -22 12
-15 11 -16 -4 -3 -13 10 -18 28 -18 66 0 64 -7 86 -26 78 -8 -3 -14 1 -14 10
0 8 6 18 13 20 10 4 10 6 0 6 -7 1 -13 10 -13 21 0 13 -7 20 -20 20 -11 0 -20
4 -20 9 0 6 10 8 21 6 12 -3 18 -1 15 3 -4 4 -13 7 -19 7 -6 0 -14 14 -19 32
-6 23 -13 31 -23 27 -9 -4 -15 0 -15 9 0 8 6 18 13 20 8 4 7 6 -4 6 -10 1 -15
10 -15 24 1 16 -4 21 -16 19 -15 -2 -18 5 -18 38 0 22 -3 39 -7 39 -18 -3 -33
2 -33 10 0 6 9 8 20 6 12 -2 18 0 15 6 -4 5 -10 7 -15 4 -11 -7 -28 17 -25 36
2 9 -3 16 -9 16 -7 0 -13 -6 -13 -13 0 -7 5 -10 10 -7 6 3 7 1 3 -6 -11 -18
-21 -6 -24 30 -2 18 -8 37 -15 41 -18 11 -21 0 -6 -19 13 -16 12 -17 -3 -5
-11 9 -18 31 -20 60 -3 40 -6 46 -22 44 -13 -3 -17 1 -13 12 3 8 2 18 -3 21
-5 3 -7 14 -5 24 2 10 -3 18 -10 18 -8 0 -12 -4 -9 -9 3 -4 1 -8 -5 -8 -5 0
-11 15 -13 33 -2 25 -7 31 -22 29 -13 -3 -17 1 -13 12 3 8 2 18 -3 21 -5 3 -7
14 -5 25 2 11 1 19 -3 19 -4 -1 -13 -1 -20 0 -10 1 -12 326 -12 1602 0 1270 3
1599 13 1593 9 -5 9 -4 0 7 -15 16 -18 63 -3 54 6 -3 10 -1 10 4 0 6 -4 11 -9
11 -5 0 -9 14 -9 30 1 17 5 30 10 30 5 0 6 -4 3 -10 -4 -6 1 -7 11 -3 11 4 13
8 6 11 -7 2 -9 9 -5 15 14 21 9 62 -8 72 -15 9 -16 11 -1 25 14 13 15 12 9 -3
-4 -10 -3 -16 2 -12 15 8 9 46 -6 41 -15 -6 -27 10 -13 19 5 3 10 11 10 16 0
6 -4 7 -10 4 -16 -10 -11 1 7 16 10 8 14 9 10 2 -4 -6 -3 -14 2 -18 8 -4 17
350 12 473 -1 15 3 21 11 16 8 -5 8 -3 2 7 -14 22 -12 78 4 84 7 3 10 0 6 -6
-11 -18 -11 -70 0 -59 12 12 16 165 4 182 -6 8 -7 5 -3 -11 5 -17 4 -22 -5
-16 -9 5 -11 4 -6 -3 4 -7 3 -12 -2 -12 -5 0 -10 28 -11 61 -2 58 -20 107 -34
92 -4 -3 -7 6 -7 20 0 20 -5 27 -20 27 -14 0 -20 7 -20 24 0 18 -5 23 -22 22
-17 -1 -22 4 -20 17 2 11 -4 17 -18 17 -17 0 -24 9 -22 30 0 3 -24 7 -55 8
-31 1 -63 7 -71 14 -9 7 -13 8 -9 2 8 -13 -410 -14 -430 -1 -7 5 -13 14 -13
20 0 7 5 5 10 -5 12 -19 42 -17 48 3 2 8 0 10 -5 4 -4 -5 -14 -11 -21 -13 -10
-2 -13 16 -11 73 2 71 3 75 23 70 15 -5 17 -4 7 3 -9 7 -10 12 -2 16 6 4 11
35 11 72 0 41 4 63 10 59 6 -3 10 0 10 7 0 10 3 9 11 -2 9 -13 10 -13 6 0 -2
8 -10 15 -17 15 -7 0 -14 8 -16 19 -2 14 0 16 9 7 14 -14 27 -14 27 0 0 5 -4
7 -10 4 -5 -3 -10 -2 -10 4 0 5 5 13 10 16 6 3 10 35 10 71 0 41 4 63 10 59 6
-3 10 0 10 7 0 10 3 9 11 -2 9 -13 10 -13 6 0 -2 8 -10 15 -18 15 -18 0 -19
57 -1 63 11 3 12 0 3 -16 -10 -18 -6 -32 8 -32 6 0 12 85 15 217 1 28 5 55 10
60 4 4 6 2 4 -6 -1 -7 3 -16 10 -18 7 -3 13 1 11 8 -1 8 -1 44 0 81 1 63 2 67
22 63 12 -3 18 -1 15 3 -4 4 -13 7 -19 7 -8 0 -12 22 -13 63 0 34 3 62 7 62 4
0 6 -9 4 -20 -3 -14 0 -18 8 -13 9 5 9 3 1 -8 -14 -19 -12 -42 4 -45 7 -1 8 0
2 3 -5 2 -7 10 -3 16 13 20 13 47 2 47 -7 0 -8 5 -2 13 5 6 10 25 12 41 2 21
-1 26 -11 20 -10 -6 -11 -5 -2 7 18 21 19 243 2 233 -10 -6 -10 -5 -1 7 6 8
12 34 11 57 0 33 -4 42 -17 40 -13 -3 -16 9 -19 67 -3 85 -7 96 -27 89 -12 -5
-15 2 -15 33 0 47 -8 57 -28 40 -13 -10 -14 -8 -10 15 3 17 0 32 -9 40 -11 9
-11 13 -1 20 10 7 10 8 -2 7 -43 -4 -68 2 -73 20 -4 15 -16 18 -81 20 -71 2
-76 1 -76 -18 0 -15 -7 -21 -22 -23 -13 0 -29 -2 -35 -2 -15 -1 -18 -21 -4
-21 5 0 12 -3 16 -6 3 -4 -2 -6 -12 -6 -44 0 -64 -4 -59 -11 8 -14 -8 -31 -34
-34 -14 -2 -30 -6 -35 -10 -7 -4 -12 7 -13 28 -2 29 1 34 15 32 18 -3 18 -4
22 92 1 23 5 30 17 28 19 -3 22 8 26 94 1 31 6 54 10 52 3 -2 8 -1 11 3 2 5 2
1 0 -7 -3 -10 -1 -12 6 -5 5 6 11 44 13 85 2 41 8 76 13 78 5 1 10 -4 11 -13
1 -8 -1 -13 -5 -11 -4 3 -7 -6 -7 -18 0 -12 6 -23 13 -23 9 0 10 4 2 14 -6 7
-7 13 -2 13 8 0 14 96 16 252 0 20 4 35 8 32 4 -2 9 2 12 8 3 7 4 3 4 -9 -1
-12 -4 -20 -8 -17 -4 2 -6 -9 -5 -25 0 -16 5 -27 10 -23 5 3 6 -3 2 -14 -4
-10 -4 -15 1 -11 13 13 13 128 0 121 -8 -5 -7 -2 1 7 7 8 12 44 12 97 0 63 3
83 13 79 6 -2 11 -11 9 -18 -2 -8 0 -10 4 -6 11 11 14 67 3 67 -5 0 -8 -5 -6
-11 1 -6 -4 -13 -11 -15 -7 -1 -8 0 -2 3 5 2 7 10 3 16 -4 7 -8 27 -8 45 -1
25 3 32 17 32 16 0 18 9 18 75 0 73 4 81 33 76 5 -1 6 3 2 8 -3 6 -12 8 -19 5
-9 -4 -13 3 -13 21 0 17 4 24 15 23 12 -2 16 7 18 40 1 23 -2 42 -6 42 -4 0
-7 -10 -6 -22 0 -11 -6 -23 -14 -25 -12 -4 -12 -3 -1 5 11 8 11 10 0 15 -11 4
-11 6 -1 6 8 1 10 6 5 14 -11 17 -13 38 -3 32 5 -3 10 -2 13 2 2 5 2 1 0 -7
-3 -10 -1 -12 6 -5 5 6 11 74 12 152 1 78 6 140 11 137 4 -3 6 -9 3 -14 -3 -5
-1 -11 5 -15 6 -4 7 -12 4 -18 -4 -7 -1 -6 7 2 11 11 11 14 1 18 -10 4 -10 8
-2 19 15 17 4 35 -18 28 -13 -5 -14 -4 -3 4 11 8 11 11 0 16 -8 3 -4 3 7 1 16
-4 21 -1 21 12 0 147 5 273 11 269 5 -3 9 1 9 9 0 8 -4 12 -9 9 -4 -3 -7 13
-5 35 1 23 7 43 13 45 12 5 12 -23 0 -42 -4 -7 -5 -16 -2 -19 3 -4 6 -1 6 6 0
7 4 10 9 7 5 -3 9 10 8 29 -1 26 -5 34 -16 32 -12 -1 -16 8 -17 45 0 26 3 45
7 42 4 -2 9 2 12 8 3 7 4 3 4 -9 -1 -12 -4 -20 -7 -18 -4 2 -7 -13 -7 -33 0
-20 2 -31 5 -24 2 6 7 10 10 8 4 -2 8 20 9 50 1 39 -2 52 -10 48 -8 -5 -8 -2
1 7 6 7 12 37 12 67 0 40 -3 51 -12 46 -10 -6 -10 -5 -1 7 9 11 13 75 13 222
1 157 4 206 13 201 7 -4 9 -4 5 1 -4 4 -2 15 5 24 11 14 10 14 -5 2 -17 -13
-18 -6 -19 120 -1 74 -1 142 0 152 1 9 -3 17 -8 17 -6 0 -11 -5 -11 -12 0 -27
-13 5 -17 43 -4 33 -2 40 8 34 8 -5 11 -5 7 0 -4 4 -2 15 5 24 10 14 10 14 -5
3 -15 -12 -17 -8 -20 45 -3 49 -6 58 -20 55 -13 -2 -18 4 -18 23 0 23 10 30
33 26 5 -1 6 3 2 8 -3 6 -12 8 -20 4 -12 -4 -15 5 -15 46 0 48 -5 56 -32 52
-5 0 -8 21 -8 48 0 61 -7 81 -26 74 -11 -4 -14 7 -14 56 0 58 -5 67 -32 62 -5
0 -8 12 -8 28 0 41 -9 61 -26 54 -13 -5 -17 16 -17 93 0 11 -5 21 -12 21 -6 0
-12 -6 -12 -13 0 -7 5 -10 10 -7 6 3 7 1 3 -6 -13 -21 -22 -3 -25 50 -3 61 -6
70 -26 62 -18 -6 -19 8 -2 26 7 8 7 11 1 8 -7 -4 -14 5 -17 23 -5 21 -11 28
-22 24 -12 -5 -15 2 -15 34 0 23 -4 44 -10 47 -5 3 -10 1 -10 -6 0 -31 -19 9
-22 46 -2 32 -7 39 -20 37 -15 -2 -18 5 -18 38 0 37 -2 41 -20 35 -18 -6 -20
-2 -20 44 0 44 -2 49 -20 46 -17 -3 -20 2 -20 34 0 44 -8 55 -27 40 -10 -9
-13 -7 -13 9 0 11 6 23 13 25 10 4 10 6 0 6 -7 1 -13 10 -13 21 0 13 -7 20
-20 20 -15 0 -20 7 -20 25 0 19 -5 25 -17 23 -18 -3 -19 1 -22 47 -1 18 -7 25
-20 25 -16 0 -20 8 -23 43 -2 34 -6 41 -20 39 -13 -2 -18 4 -18 21 0 12 -5 28
-12 35 -9 9 -9 12 2 12 7 0 11 3 7 6 -12 12 -28 -7 -18 -20 8 -9 7 -13 -3 -13
-7 0 -13 7 -13 16 0 52 -4 61 -24 61 -13 0 -20 6 -18 18 4 44 -1 62 -20 62
-13 0 -21 8 -23 23 -2 15 -9 21 -20 19 -14 -2 -18 4 -18 33 0 28 -5 38 -19 42
-11 3 -21 15 -23 27 -2 14 -9 20 -21 18 -13 -2 -18 2 -17 15 5 45 0 63 -19 63
-13 0 -21 8 -23 23 -2 15 -9 21 -20 19 -17 -3 -21 6 -21 59 0 11 -10 15 -36
14 l-36 -1 -3 -234 c-2 -164 -7 -239 -15 -249 -9 -12 -9 -13 1 -7 7 4 12 1 12
-9 0 -10 -5 -14 -12 -9 -10 6 -10 4 0 -7 6 -7 12 -20 12 -29 0 -14 -17 -18
-49 -11 -2 1 2 7 8 15 8 10 9 16 1 21 -6 3 -7 12 -3 18 4 7 -1 6 -10 -2 -23
-18 -34 -7 -16 16 8 9 9 14 2 10 -6 -4 -14 -3 -18 2 -3 6 -12 8 -20 4 -14 -5
-18 6 -18 59 0 11 -6 15 -18 13 -11 -2 -20 0 -20 6 -1 5 -2 14 -3 19 -1 14
-13 17 -23 6 -4 -5 -3 -7 3 -3 6 3 11 0 11 -7 0 -7 -6 -13 -12 -13 -7 0 -12 7
-12 16 0 53 -3 59 -35 66 -18 4 -27 9 -20 12 13 5 17 24 5 22 -27 -4 -40 3
-39 24 1 16 -4 21 -16 19 -14 -2 -18 4 -18 33 0 28 -5 38 -20 42 -15 4 -20 14
-20 42 0 44 -8 55 -27 40 -10 -9 -13 -7 -13 9 0 11 6 23 13 25 10 4 10 6 0 6
-7 1 -13 10 -13 21 0 13 -7 20 -20 20 -15 0 -20 7 -20 25 0 19 -5 25 -17 23
-13 -2 -18 6 -21 37 -2 22 -8 46 -14 53 -7 8 -7 12 2 12 8 0 11 3 7 6 -12 12
-28 -7 -18 -20 8 -9 7 -13 -3 -13 -7 0 -13 7 -13 16 0 42 -4 61 -10 60 -18 -3
-33 2 -33 10 0 6 10 8 21 6 12 -3 18 -1 15 3 -4 4 -13 7 -19 7 -6 0 -14 14
-19 32 -6 23 -13 31 -23 27 -12 -5 -15 3 -15 34 0 23 -4 44 -10 47 -5 3 -10 1
-10 -6 0 -27 -19 7 -22 41 -3 19 -7 34 -11 33 -4 -2 -10 -3 -13 -3 -4 0 -1 -6
5 -13 8 -10 7 -14 -2 -14 -7 0 -13 13 -13 28 -2 42 -11 59 -29 53 -12 -5 -15
2 -15 35 0 34 -3 41 -20 41 -19 0 -23 9 -23 62 0 9 -2 17 -6 16 -22 -2 -31 5
-31 26 0 19 -4 24 -20 21 -17 -3 -20 2 -20 32 0 26 -5 36 -20 40 -11 3 -20 14
-20 24 0 12 -7 19 -20 19 -15 0 -20 7 -20 25 0 19 -5 25 -17 23 -12 -2 -17 6
-20 32 -6 42 -2 39 -40 42 -18 1 -29 6 -27 10 3 4 0 8 -5 8 -6 0 -11 -5 -11
-11 0 -5 -4 -8 -8 -5 -4 2 -14 1 -21 -3 -10 -6 -9 -10 4 -14 11 -5 14 -3 9 6
-4 6 -3 8 1 4 11 -9 16 -39 6 -33 -15 10 -32 -12 -33 -42 -1 -18 -5 -32 -10
-32 -4 0 -7 3 -5 8 1 4 -2 9 -7 12 -10 5 -12 -18 -18 -156 -2 -44 -7 -71 -14
-71 -12 0 -13 14 -3 32 8 16 5 35 -6 35 -10 0 -11 -12 -14 -112 0 -28 -4 -48
-8 -45 -3 4 -12 2 -20 -5 -8 -6 -13 -7 -12 -2 4 24 -2 45 -12 39 -6 -4 -5 1 2
13 16 25 5 54 -16 45 -11 -4 -16 -1 -15 8 1 8 2 34 1 57 -1 35 -5 45 -21 49
-17 5 -20 13 -19 58 2 59 -5 77 -26 68 -10 -3 -15 2 -15 17 0 11 4 19 8 16 5
-3 9 1 9 9 0 8 -4 12 -9 9 -4 -3 -8 10 -8 29 0 22 -6 37 -16 41 -10 4 -13 2
-8 -6 4 -7 3 -8 -4 -4 -7 4 -12 32 -12 67 0 51 -3 59 -19 59 -16 0 -19 8 -20
56 -1 64 -6 75 -26 67 -12 -4 -15 5 -15 45 0 61 -7 82 -25 76 -10 -4 -15 6
-17 38 -2 34 -6 42 -20 40 -16 -2 -18 6 -18 58 0 57 -5 66 -32 61 -7 -1 -11
18 -11 59 0 9 -9 16 -21 17 -12 1 -15 -1 -8 -4 6 -3 9 -10 6 -15 -5 -7 -2 -8
6 -3 8 5 11 4 7 -1 -3 -5 -18 -11 -34 -12 -53 -5 -68 -9 -69 -20 -1 -7 -2 -26
-3 -43 -1 -23 -5 -30 -16 -26 -18 7 -30 -9 -14 -19 8 -5 9 -3 4 7 -8 12 -6 12
8 0 22 -17 21 -19 -5 -17 -18 1 -23 -4 -22 -21 1 -12 -1 -22 -5 -21 -22 2 -31
-5 -31 -27 0 -19 -5 -25 -17 -23 -18 3 -20 -1 -22 -51 -1 -24 -5 -28 -21 -24
-17 4 -20 14 -22 62 0 31 -1 64 0 74 1 9 -3 17 -8 17 -6 0 -9 -3 -7 -7 1 -5
-2 -10 -8 -13 -12 -6 -15 127 -3 152 4 9 4 19 -2 21 -6 3 -5 4 2 3 13 -3 18
-33 7 -51 -9 -16 -5 -85 6 -86 5 0 11 4 13 10 2 6 -1 11 -7 11 -6 0 -11 5 -11
11 0 5 3 8 8 5 4 -2 7 22 7 54 0 32 -2 58 -5 58 -18 -1 -30 3 -30 11 0 6 10 8
21 6 12 -3 18 -1 15 3 -4 4 -13 7 -19 7 -7 0 -12 13 -12 28 1 15 -2 27 -5 28
-22 3 -70 3 -92 1z m6 -20 c3 -5 -1 -9 -9 -9 -8 0 -12 4 -9 9 3 4 7 8 9 8 2 0
6 -4 9 -8z m323 -127 c0 -6 -6 -12 -12 -12 -6 0 -12 6 -12 12 0 6 6 12 12 12
6 0 12 -6 12 -12z m153 -151 c0 -8 -19 -13 -24 -6 -3 5 1 9 9 9 8 0 15 -2 15
-3z m-1560 -38 c0 -2 -8 -10 -17 -17 -16 -13 -17 -12 -4 4 13 16 21 21 21 13z
m1279 -9 c8 -10 7 -14 -2 -14 -8 0 -14 6 -14 14 0 7 1 13 2 13 2 0 8 -6 14
-13z m361 -151 c0 -2 -8 -10 -17 -17 -16 -13 -17 -12 -4 4 13 16 21 21 21 13z
m-2316 -44 c3 -5 -1 -9 -9 -9 -8 0 -12 4 -9 9 3 4 7 8 9 8 2 0 6 -4 9 -8z
m-80 -40 c3 -5 -1 -9 -9 -9 -8 0 -12 4 -9 9 3 4 7 8 9 8 2 0 6 -4 9 -8z m796
2 c0 -8 -19 -13 -24 -6 -3 5 1 9 9 9 8 0 15 -2 15 -3z m-13 -39 c0 -8 -4 -12
-9 -9 -5 3 -6 10 -3 15 9 13 12 11 12 -6z m-943 -43 c3 -5 -1 -9 -9 -9 -8 0
-12 4 -9 9 3 4 7 8 9 8 2 0 6 -4 9 -8z m-280 -120 c3 -5 -1 -9 -9 -9 -8 0 -12
4 -9 9 3 4 7 8 9 8 2 0 6 -4 9 -8z m3276 4 c0 -2 -8 -10 -17 -17 -16 -13 -17
-12 -4 4 13 16 21 21 21 13z m-114 -129 c1 -8 -4 -14 -10 -14 -7 0 -12 11 -12
24 0 24 18 16 22 -10z m274 -111 c0 -2 -8 -10 -17 -17 -16 -13 -17 -12 -4 4
13 16 21 21 21 13z m30 -45 c0 -6 -4 -12 -8 -15 -5 -3 -9 1 -9 9 0 8 4 15 9
15 4 0 8 -4 8 -9z m-442 -51 c-7 -10 -14 -17 -17 -15 -4 4 18 35 25 35 2 0 -1
-9 -8 -20z m492 -24 c0 -2 -8 -10 -17 -17 -16 -13 -17 -12 -4 4 13 16 21 21
21 13z m-434 -88 c3 -4 -1 -5 -10 -4 -8 1 -18 5 -22 8 -3 4 1 5 10 4 8 -1 18
-5 22 -8z m-4482 -409 c-3 -5 -10 -7 -15 -3 -5 3 -7 10 -3 15 3 5 10 7 15 3 5
-3 7 -10 3 -15z m5706 -74 c0 -6 -8 -10 -17 -10 -10 1 -21 -4 -25 -10 -4 -5
-6 0 -6 11 2 15 8 20 25 19 13 0 23 -5 23 -10z m-5871 -78 c8 -10 7 -14 -2
-14 -8 0 -14 6 -14 14 0 7 1 13 2 13 2 0 8 -6 14 -13z m5921 9 c0 -2 -8 -10
-17 -17 -16 -13 -17 -12 -4 4 13 16 21 21 21 13z m-6485 -46 c-3 -5 -1 -10 6
-10 7 0 10 -3 6 -6 -9 -9 -28 6 -22 17 4 5 8 9 11 9 3 0 2 -4 -1 -10z m-31
-51 c-3 -5 -10 -7 -15 -3 -5 3 -7 10 -3 15 3 5 10 7 15 3 5 -3 7 -10 3 -15z
m443 -114 c0 -6 -6 -12 -12 -12 -6 0 -12 6 -12 12 0 6 6 12 12 12 6 0 12 -6
12 -12z m5827 -126 c-3 -5 -10 -7 -15 -3 -5 3 -7 10 -3 15 3 5 10 7 15 3 5 -3
7 -10 3 -15z m-6435 -32 c8 -10 7 -14 -2 -14 -8 0 -14 6 -14 14 0 7 1 13 2 13
2 0 8 -6 14 -13z m401 -31 c0 -2 -8 -10 -17 -17 -16 -13 -17 -12 -4 4 13 16
21 21 21 13z m90 -42 c0 -8 -19 -13 -24 -6 -3 5 1 9 9 9 8 0 15 -2 15 -3z
m6510 -38 c0 -2 -8 -10 -17 -17 -16 -13 -17 -12 -4 4 13 16 21 21 21 13z m40
-80 c0 -2 -8 -10 -17 -17 -16 -13 -17 -12 -4 4 13 16 21 21 21 13z m-7190 -87
c0 -4 -6 -9 -13 -12 -8 -3 -14 0 -14 7 0 7 6 13 14 13 7 0 13 -4 13 -8z m7350
-193 c0 -2 -8 -10 -17 -17 -16 -13 -17 -12 -4 4 13 16 21 21 21 13z m-7521
-129 c8 -10 7 -14 -2 -14 -8 0 -14 6 -14 14 0 7 1 13 2 13 2 0 8 -6 14 -13z
m7595 -35 c3 -5 -1 -9 -9 -9 -8 0 -12 4 -9 9 3 4 7 8 9 8 2 0 6 -4 9 -8z
m-7707 -231 c1 -10 -3 -21 -10 -24 -9 -3 -13 6 -13 29 0 35 17 32 23 -5z m-40
-120 c1 -10 -3 -21 -10 -24 -9 -3 -13 6 -13 29 0 35 17 32 23 -5z m8113 -565
c0 -2 -8 -10 -17 -17 -16 -13 -17 -12 -4 4 13 16 21 21 21 13z m40 -240 c0 -2
-8 -10 -17 -17 -16 -13 -17 -12 -4 4 13 16 21 21 21 13z m-8233 -197 c2 -13
-1 -19 -9 -17 -7 3 -13 17 -14 32 -1 32 18 19 23 -15z m38 -388 c3 -5 2 -12
-3 -15 -5 -3 -9 1 -9 9 0 17 3 19 12 6z m0 -40 c3 -5 2 -12 -3 -15 -5 -3 -9 1
-9 9 0 17 3 19 12 6z m8183 -151 c-7 -10 -14 -17 -17 -15 -4 4 18 35 25 35 2
0 -1 -9 -8 -20z m-8138 -270 c0 -4 -6 -10 -14 -13 -12 -5 -14 2 -7 31 2 7 21
-10 21 -18z m8110 -196 c0 -8 -19 -13 -24 -6 -3 5 1 9 9 9 8 0 15 -2 15 -3z
m-8075 -23 c3 -5 2 -12 -3 -15 -5 -3 -9 1 -9 9 0 17 3 19 12 6z m8069 -16 c-4
-8 -9 -15 -13 -15 -4 0 -8 7 -8 15 0 8 6 15 13 15 8 0 11 -6 8 -15z m-37 -439
c0 -8 -6 -12 -15 -9 -11 5 -11 7 0 14 7 5 13 9 14 9 0 0 1 -6 1 -14z m-7953
-44 c3 -5 -1 -9 -9 -9 -8 0 -12 4 -9 9 3 4 7 8 9 8 2 0 6 -4 9 -8z m7916 -158
c0 -8 -19 -13 -24 -6 -3 5 1 9 9 9 8 0 15 -2 15 -3z m-52 -294 c-7 -10 -14
-17 -17 -15 -4 4 18 35 25 35 2 0 -1 -9 -8 -20z m-7744 -268 c3 -5 -1 -9 -9
-9 -8 0 -12 4 -9 9 3 4 7 8 9 8 2 0 6 -4 9 -8z m43 -249 c-11 -10 -26 8 -20
23 5 15 7 14 15 -1 6 -9 7 -19 5 -22z m7590 -67 c0 -8 -6 -12 -15 -9 -11 5
-11 7 0 14 7 5 13 9 14 9 0 0 1 -6 1 -14z m-41 -102 c0 -24 -4 -30 -15 -26
-10 4 -11 7 -3 10 7 2 9 9 5 15 -12 19 -12 34 1 34 7 0 12 -15 12 -33z m-7646
11 c0 -6 -10 -10 -22 -11 -28 0 -40 5 -34 15 7 11 56 7 56 -4z m7854 7 c3 -5
-1 -9 -9 -9 -8 0 -12 4 -9 9 3 4 7 8 9 8 2 0 6 -4 9 -8z m113 -7 c0 -6 -6 -12
-12 -12 -6 0 -12 6 -12 12 0 6 6 12 12 12 6 0 12 -6 12 -12z m-7925 -40 c0 -5
-5 -10 -11 -11 -8 -2 -7 -1 0 3 8 4 7 8 -2 15 -11 8 -11 9 -1 6 8 -2 14 -8 14
-13z m7997 2 c8 -10 7 -14 -2 -14 -8 0 -14 6 -14 14 0 7 1 13 2 13 2 0 8 -6
14 -13z m-8302 -42 c0 -6 -6 -12 -12 -12 -6 0 -12 6 -12 12 0 6 6 12 12 12 6
0 12 -6 12 -12z m-45 -103 c-9 -3 -10 -8 -3 -16 8 -9 7 -13 -2 -13 -7 0 -13
10 -13 23 0 15 4 20 15 16 11 -4 11 -7 3 -10z m8466 -222 c-7 -10 -14 -17 -17
-15 -4 4 18 35 25 35 2 0 -1 -9 -8 -20z m3 -193 c-6 -8 -7 -18 -3 -22 4 -5 1
-5 -6 -1 -10 6 -10 11 -1 22 6 8 14 14 16 14 3 0 0 -6 -6 -13z m6 -106 c-1
-19 -27 -18 -27 1 0 5 5 6 10 3 6 -3 10 -1 10 4 0 6 2 11 4 11 3 0 4 -9 3 -19z
m-8472 -310 c3 -5 2 -12 -3 -15 -5 -3 -9 1 -9 9 0 17 3 19 12 6z m8390 -181
c-3 -5 -12 -10 -18 -10 -7 0 -6 4 3 10 19 12 23 12 15 0z m-43 -202 c-15 -15
-16 -31 0 -22 7 4 8 3 4 -4 -10 -16 -26 -15 -26 1 0 13 19 37 29 37 3 0 0 -5
-7 -12z m-8268 -36 c3 -5 -1 -9 -9 -9 -8 0 -12 4 -9 9 3 4 7 8 9 8 2 0 6 -4 9
-8z m8231 -191 c-3 -6 -11 -11 -16 -11 -5 0 -4 6 3 14 14 16 24 13 13 -3z
m518 -215 c4 -10 1 -13 -9 -9 -15 6 -19 23 -5 23 5 0 11 -7 14 -14z m163 -168
c4 -6 3 -8 -4 -4 -5 3 -13 0 -15 -6 -3 -8 -6 -6 -6 5 -1 19 14 23 25 5z m34
-147 c-7 -14 -7 -22 0 -26 13 -8 3 -25 -13 -25 -7 0 -6 4 3 10 11 7 11 10 2
10 -15 0 -12 31 3 42 16 12 17 10 5 -11z m-9625 -530 c3 -5 2 -12 -3 -15 -5
-3 -9 1 -9 9 0 17 3 19 12 6z m1 -100 c0 -11 -4 -17 -8 -15 -4 3 -8 12 -8 20
0 8 4 14 8 14 4 0 8 -9 8 -19z m9590 -143 c-1 -22 -26 -39 -26 -18 0 6 5 8 10
5 6 -3 10 -1 10 4 0 6 -6 11 -12 11 -9 0 -8 4 2 10 10 6 11 10 3 10 -7 0 -13
5 -13 11 0 8 4 8 14 0 7 -6 13 -21 12 -33z m-4 -3393 c0 -5 -5 -10 -11 -11 -8
-2 -7 -1 0 3 8 4 7 8 -2 15 -11 8 -11 9 -1 6 8 -2 14 -8 14 -13z m48 -71 c0
-8 -19 -13 -24 -6 -3 5 1 9 9 9 8 0 15 -2 15 -3z m35 -54 c-3 -5 -12 -10 -18
-10 -7 0 -6 4 3 10 19 12 23 12 15 0z m-9905 -31 c0 -4 -6 -9 -13 -12 -8 -3
-14 0 -14 7 0 7 6 13 14 13 7 0 13 -4 13 -8z m9950 -35 c0 -8 -19 -13 -24 -6
-3 5 1 9 9 9 8 0 15 -2 15 -3z m235 -444 c3 -6 -1 -7 -9 -4 -18 7 -21 14 -7
14 6 0 13 -4 16 -10z m-10505 -175 c0 -2 -6 -5 -13 -8 -8 -3 -14 1 -14 8 0 7
6 11 14 8 7 -3 13 -6 13 -8z m10624 -143 c3 -5 -1 -9 -9 -9 -8 0 -12 4 -9 9 3
4 7 8 9 8 2 0 6 -4 9 -8z"/>
<path d="M9726 15972 c-3 -5 1 -9 9 -9 8 0 12 4 9 9 -3 4 -7 8 -9 8 -2 0 -6
-4 -9 -8z"/>
<path d="M9954 15892 c4 -3 14 -7 22 -8 9 -1 13 0 10 4 -4 3 -14 7 -22 8 -9 1
-13 0 -10 -4z"/>
<path d="M8413 15818 c-2 -5 -1 -8 4 -7 4 1 10 0 13 -1 18 -8 62 -5 69 4 7 8
-3 12 -35 12 -25 0 -48 -4 -51 -8z"/>
<path d="M9399 15822 c9 -7 10 -11 2 -15 -7 -4 -8 -5 0 -3 15 2 13 20 -3 24
-10 3 -10 2 1 -6z"/>
<path d="M9839 15742 c9 -7 10 -11 2 -15 -7 -4 -8 -5 0 -3 15 2 13 20 -3 24
-10 3 -10 2 1 -6z"/>
<path d="M9236 15688 c3 -5 10 -6 15 -3 13 9 11 12 -6 12 -8 0 -12 -4 -9 -9z"/>
<path d="M8076 15608 c3 -5 10 -6 15 -3 13 9 11 12 -6 12 -8 0 -12 -4 -9 -9z"/>
<path d="M9076 15568 c3 -5 10 -6 15 -3 13 9 11 12 -6 12 -8 0 -12 -4 -9 -9z"/>
<path d="M7956 15528 c3 -5 10 -6 15 -3 13 9 11 12 -6 12 -8 0 -12 -4 -9 -9z"/>
<path d="M8569 15518 c0 -2 -2 -11 -4 -21 -3 -15 -1 -16 11 -6 7 6 11 15 8 20
-5 9 -13 12 -15 7z"/>
<path d="M8950 15496 c0 -2 7 -7 16 -10 8 -3 12 -2 9 4 -6 10 -25 14 -25 6z"/>
<path d="M10206 15412 c-3 -5 1 -9 9 -9 8 0 12 4 9 9 -3 4 -7 8 -9 8 -2 0 -6
-4 -9 -8z"/>
<path d="M10566 15256 c10 -8 21 -12 24 -10 5 6 -21 24 -34 24 -6 0 -1 -6 10
-14z"/>
<path d="M10643 15173 c0 -9 4 -10 14 -2 7 6 13 12 13 14 0 1 -6 2 -13 2 -8 0
-14 -6 -14 -14z"/>
<path d="M7196 15168 c3 -5 10 -6 15 -3 13 9 11 12 -6 12 -8 0 -12 -4 -9 -9z"/>
<path d="M6916 15048 c3 -5 10 -6 15 -3 13 9 11 12 -6 12 -8 0 -12 -4 -9 -9z"/>
<path d="M6355 14741 c-3 -5 -2 -12 3 -15 5 -3 9 1 9 9 0 17 -3 19 -12 6z"/>
<path d="M5950 14426 c0 -2 8 -10 18 -17 15 -13 16 -12 3 4 -13 16 -21 21 -21
13z"/>
<path d="M11123 14373 c0 -9 4 -10 14 -2 7 6 13 12 13 14 0 1 -6 2 -13 2 -8 0
-14 -6 -14 -14z"/>
<path d="M5839 14302 c9 -7 10 -11 2 -15 -7 -4 -8 -5 0 -3 15 2 13 20 -3 24
-10 3 -10 2 1 -6z"/>
<path d="M5286 14172 c-3 -5 1 -9 9 -9 8 0 12 4 9 9 -3 4 -7 8 -9 8 -2 0 -6
-4 -9 -8z"/>
<path d="M11246 14168 c3 -5 10 -6 15 -3 13 9 11 12 -6 12 -8 0 -12 -4 -9 -9z"/>
<path d="M5633 14055 c0 -6 6 -12 12 -12 6 0 12 6 12 12 0 6 -6 12 -12 12 -6
0 -12 -6 -12 -12z"/>
<path d="M5080 14005 c-14 -17 -6 -50 10 -40 8 5 8 11 1 19 -7 9 -7 16 1 24 7
7 9 12 6 12 -3 0 -11 -7 -18 -15z"/>
<path d="M5039 13942 c9 -7 10 -11 2 -15 -7 -4 -8 -5 0 -3 15 2 13 20 -3 24
-10 3 -10 2 1 -6z"/>
<path d="M5559 13942 c9 -7 10 -11 2 -15 -7 -4 -8 -5 0 -3 15 2 13 20 -3 24
-10 3 -10 2 1 -6z"/>
<path d="M5366 13932 c-3 -5 1 -9 9 -9 8 0 12 4 9 9 -3 4 -7 8 -9 8 -2 0 -6
-4 -9 -8z"/>
<path d="M11926 13892 c-3 -5 1 -9 9 -9 8 0 12 4 9 9 -3 4 -7 8 -9 8 -2 0 -6
-4 -9 -8z"/>
<path d="M11554 13838 l-19 -23 23 19 c21 18 27 26 19 26 -2 0 -12 -10 -23
-22z"/>
<path d="M5479 13822 c9 -7 10 -11 2 -15 -7 -4 -8 -5 0 -3 15 2 13 20 -3 24
-10 3 -10 2 1 -6z"/>
<path d="M4959 13782 c9 -7 10 -11 2 -15 -7 -4 -8 -5 0 -3 15 2 13 20 -3 24
-10 3 -10 2 1 -6z"/>
<path d="M4919 13702 c9 -7 10 -11 2 -15 -7 -4 -8 -5 0 -3 15 2 13 20 -3 24
-10 3 -10 2 1 -6z"/>
<path d="M4876 13621 c-4 -5 -2 -12 3 -15 5 -4 12 -2 15 3 4 5 2 12 -3 15 -5
4 -12 2 -15 -3z"/>
<path d="M12083 13613 c0 -9 4 -10 14 -2 7 6 13 12 13 14 0 1 -6 2 -13 2 -8 0
-14 -6 -14 -14z"/>
<path d="M4799 13502 c9 -7 10 -11 2 -15 -7 -4 -8 -5 0 -3 15 2 13 20 -3 24
-10 3 -10 2 1 -6z"/>
<path d="M4719 13342 c9 -7 10 -11 2 -15 -7 -4 -8 -5 0 -3 15 2 13 20 -3 24
-10 3 -10 2 1 -6z"/>
<path d="M12246 13332 c-3 -5 1 -9 9 -9 8 0 12 4 9 9 -3 4 -7 8 -9 8 -2 0 -6
-4 -9 -8z"/>
<path d="M4599 13102 c9 -7 10 -11 2 -15 -7 -4 -8 -5 0 -3 15 2 13 20 -3 24
-10 3 -10 2 1 -6z"/>
<path d="M4474 12685 c-1 -42 7 -57 21 -36 3 5 1 13 -5 16 -8 5 -8 11 -1 19 8
9 7 18 -2 29 -10 15 -12 10 -13 -28z"/>
<path d="M4439 12443 c-13 -16 -12 -17 4 -4 16 13 21 21 13 21 -2 0 -10 -8
-17 -17z"/>
<path d="M12683 12133 c0 -9 4 -10 14 -2 7 6 13 12 13 14 0 1 -6 2 -13 2 -8 0
-14 -6 -14 -14z"/>
<path d="M4439 11723 c-13 -16 -12 -17 4 -4 16 13 21 21 13 21 -2 0 -10 -8
-17 -17z"/>
<path d="M12726 11732 c-3 -5 1 -9 9 -9 8 0 12 4 9 9 -3 4 -7 8 -9 8 -2 0 -6
-4 -9 -8z"/>
<path d="M4482 11371 c-11 -7 -11 -9 0 -14 9 -3 15 1 15 9 0 8 -1 14 -1 14 -1
0 -7 -4 -14 -9z"/>
<path d="M4519 10923 c-13 -16 -12 -17 4 -4 16 13 21 21 13 21 -2 0 -10 -8
-17 -17z"/>
<path d="M4556 10648 c3 -5 10 -6 15 -3 13 9 11 12 -6 12 -8 0 -12 -4 -9 -9z"/>
<path d="M12653 10625 c0 -8 4 -12 9 -9 5 3 6 10 3 15 -9 13 -12 11 -12 -6z"/>
<path d="M4596 10452 c-3 -5 1 -9 9 -9 8 0 12 4 9 9 -3 4 -7 8 -9 8 -2 0 -6
-4 -9 -8z"/>
<path d="M4596 10412 c-3 -5 1 -9 9 -9 8 0 12 4 9 9 -3 4 -7 8 -9 8 -2 0 -6
-4 -9 -8z"/>
<path d="M12569 10098 c-1 -2 -2 -16 -3 -31 -2 -19 0 -25 7 -18 14 14 19 51 7
51 -6 0 -10 -1 -11 -2z"/>
<path d="M4679 9963 c-13 -16 -12 -17 4 -4 9 7 17 15 17 17 0 8 -8 3 -21 -13z"/>
<path d="M4720 9724 c-11 -12 -10 -18 5 -32 18 -16 18 -16 6 1 -11 14 -11 20
-1 32 7 8 10 15 7 15 -2 0 -10 -7 -17 -16z"/>
<path d="M4759 9483 c-13 -16 -12 -17 4 -4 9 7 17 15 17 17 0 8 -8 3 -21 -13z"/>
<path d="M12448 9357 c7 -8 8 -18 4 -22 -4 -5 -1 -5 6 -1 17 10 15 23 -4 30
-13 5 -14 4 -6 -7z"/>
<path d="M12726 9172 c-3 -5 1 -9 9 -9 8 0 12 4 9 9 -3 4 -7 8 -9 8 -2 0 -6
-4 -9 -8z"/>
<path d="M12883 8853 c0 -9 4 -10 14 -2 7 6 13 12 13 14 0 1 -6 2 -13 2 -8 0
-14 -6 -14 -14z"/>
<path d="M12846 8111 c1 -20 3 -38 4 -41 1 -3 2 -9 0 -15 -1 -5 5 -4 12 4 10
11 10 14 0 18 -6 3 -9 10 -5 16 13 21 13 45 0 50 -10 4 -13 -5 -11 -32z"/>
<path d="M4439 7883 c-13 -16 -12 -17 4 -4 9 7 17 15 17 17 0 8 -8 3 -21 -13z"/>
<path d="M4479 7643 c-13 -16 -12 -17 4 -4 16 13 21 21 13 21 -2 0 -10 -8 -17
-17z"/>
<path d="M4519 7483 c-13 -16 -12 -17 4 -4 9 7 17 15 17 17 0 8 -8 3 -21 -13z"/>
<path d="M12726 7492 c-3 -5 1 -9 9 -9 8 0 12 4 9 9 -3 4 -7 8 -9 8 -2 0 -6
-4 -9 -8z"/>
<path d="M4131 7384 c-1 -6 2 -13 5 -17 8 -8 34 3 34 15 0 6 -6 6 -14 -1 -11
-9 -15 -9 -19 1 -3 7 -6 8 -6 2z"/>
<path d="M4195 7380 c-3 -6 1 -7 9 -4 18 7 21 14 7 14 -6 0 -13 -4 -16 -10z"/>
<path d="M4295 7380 c6 -10 4 -12 -8 -7 -10 3 -17 2 -17 -3 0 -13 27 -13 35
-1 3 5 0 13 -6 17 -8 5 -9 3 -4 -6z"/>
<path d="M4415 7381 c-3 -5 -2 -12 3 -15 15 -9 46 0 50 15 2 8 0 10 -5 4 -11
-14 -47 -19 -38 -6 3 6 4 11 1 11 -3 0 -7 -4 -11 -9z"/>
<path d="M12795 7379 c-4 -6 -5 -12 -2 -15 2 -3 7 2 10 11 7 17 1 20 -8 4z"/>
<path d="M12895 7381 c-3 -5 -2 -12 3 -15 15 -9 46 0 50 15 2 8 0 10 -5 4 -11
-14 -47 -19 -38 -6 3 6 4 11 1 11 -3 0 -7 -4 -11 -9z"/>
<path d="M13015 7380 c6 -10 4 -12 -8 -7 -10 3 -17 2 -17 -3 0 -13 27 -13 35
-1 3 5 0 13 -6 17 -8 5 -9 3 -4 -6z"/>
<path d="M4336 7371 c-3 -4 6 -6 19 -3 14 2 25 6 25 8 0 8 -39 4 -44 -5z"/>
<path d="M4510 7370 c0 -6 7 -10 15 -10 8 0 15 2 15 4 0 2 -7 6 -15 10 -8 3
-15 1 -15 -4z"/>
<path d="M12816 7371 c-3 -4 6 -6 19 -3 14 2 25 6 25 8 0 8 -39 4 -44 -5z"/>
<path d="M13057 7373 c-3 -5 8 -8 23 -8 15 0 26 3 23 8 -2 4 -13 7 -23 7 -10
0 -21 -3 -23 -7z"/>
<path d="M3756 7032 c-3 -5 1 -9 9 -9 8 0 12 4 9 9 -3 4 -7 8 -9 8 -2 0 -6 -4
-9 -8z"/>
<path d="M3771 7002 c-1 -8 -6 -10 -13 -6 -10 5 -10 4 -1 -6 15 -16 28 -8 20
12 -4 11 -6 11 -6 0z"/>
<path d="M3755 6910 c3 -5 8 -10 11 -10 2 0 4 5 4 10 0 6 -5 10 -11 10 -5 0
-7 -4 -4 -10z"/>
<path d="M13459 6858 c-5 -9 -5 -48 -1 -43 6 6 11 45 5 45 -2 0 -4 -1 -4 -2z"/>
<path d="M13405 6350 c-3 -6 1 -7 9 -4 18 7 21 14 7 14 -6 0 -13 -4 -16 -10z"/>
<path d="M3803 6266 c-9 -11 -9 -15 0 -19 7 -3 14 3 14 14 2 22 2 22 -14 5z"/>
<path d="M3795 6130 c3 -5 8 -10 11 -10 2 0 4 5 4 10 0 6 -5 10 -11 10 -5 0
-7 -4 -4 -10z"/>
<path d="M13401 6103 c-1 -17 16 -25 25 -12 4 7 3 9 -4 5 -5 -3 -13 0 -15 6
-4 9 -6 10 -6 1z"/>
<path d="M13407 5989 c7 -7 15 -10 18 -7 3 3 -2 9 -12 12 -14 6 -15 5 -6 -5z"/>
<path d="M3800 3020 c-8 -5 -12 -12 -9 -15 4 -3 12 1 19 10 14 17 11 19 -10 5z"/>
<path d="M3679 2862 c9 -7 10 -11 2 -15 -7 -4 -8 -5 -1 -3 16 2 14 20 -2 24
-10 3 -10 2 1 -6z"/>
<path d="M3596 2741 c-4 -5 -2 -12 3 -15 5 -4 12 -2 15 3 4 5 2 12 -3 15 -5 4
-12 2 -15 -3z"/>
<path d="M3519 2622 c9 -7 10 -11 2 -15 -7 -4 -8 -5 -1 -3 16 2 14 20 -2 24
-10 3 -10 2 1 -6z"/>
<path d="M3476 2541 c-4 -5 -2 -12 3 -15 5 -4 12 -2 15 3 4 5 2 12 -3 15 -5 4
-12 2 -15 -3z"/>
<path d="M3439 2502 c9 -7 10 -11 2 -15 -7 -4 -8 -5 -1 -3 16 2 14 20 -2 24
-10 3 -10 2 1 -6z"/>
<path d="M3399 2422 c9 -7 10 -11 2 -15 -7 -4 -8 -5 -1 -3 16 2 14 20 -2 24
-10 3 -10 2 1 -6z"/>
<path d="M13886 1972 c-3 -5 1 -9 9 -9 8 0 12 4 9 9 -3 4 -7 8 -9 8 -2 0 -6
-4 -9 -8z"/>
<path d="M3199 1942 c11 -8 11 -10 0 -15 -11 -4 -11 -6 1 -6 13 -1 13 -2 0
-11 -13 -9 -13 -10 0 -10 13 0 13 -1 0 -11 -13 -9 -13 -10 0 -6 9 2 15 15 15
32 0 17 -6 30 -15 32 -12 4 -12 3 -1 -5z"/>
<path d="M3162 1768 c-16 -16 -15 -35 1 -41 8 -3 14 1 14 9 0 7 -4 11 -9 8
-12 -8 -10 10 4 24 7 7 10 12 7 12 -3 0 -10 -5 -17 -12z"/>
<path d="M13973 1665 c0 -8 4 -12 9 -9 5 3 6 10 3 15 -9 13 -12 11 -12 -6z"/>
<path d="M4240 765 c-7 -9 -11 -17 -9 -20 3 -2 10 5 17 15 14 24 10 26 -8 5z"/>
<path d="M4339 778 c-6 -21 -5 -38 1 -38 5 0 8 9 7 20 -1 17 -5 26 -8 18z"/>
<path d="M4535 771 c-3 -5 -2 -12 3 -15 5 -3 9 1 9 9 0 17 -3 19 -12 6z"/>
<path d="M4659 778 c-5 -16 -4 -46 2 -42 4 2 7 13 6 24 -1 17 -5 26 -8 18z"/>
<path d="M4776 771 c-3 -5 2 -15 12 -22 15 -12 16 -12 5 2 -7 9 -10 19 -6 22
3 4 4 7 0 7 -3 0 -8 -4 -11 -9z"/>
<path d="M4855 771 c-3 -5 -2 -12 3 -15 5 -3 9 1 9 9 0 17 -3 19 -12 6z"/>
<path d="M4976 771 c-3 -5 1 -14 8 -20 10 -9 16 -9 21 -1 4 6 1 9 -7 8 -7 -2
-12 3 -10 10 2 14 -4 16 -12 3z"/>
<path d="M5096 771 c-3 -5 2 -15 12 -22 15 -12 16 -12 5 2 -7 9 -10 19 -6 22
3 4 4 7 0 7 -3 0 -8 -4 -11 -9z"/>
<path d="M5175 771 c-3 -5 -2 -12 3 -15 5 -3 9 1 9 9 0 17 -3 19 -12 6z"/>
<path d="M5296 771 c-3 -5 1 -14 8 -20 10 -9 16 -9 21 -1 4 6 1 9 -7 8 -7 -2
-12 3 -10 10 2 14 -4 16 -12 3z"/>
<path d="M5416 771 c-3 -5 2 -15 12 -22 15 -12 16 -12 5 2 -7 9 -10 19 -6 22
3 4 4 7 0 7 -3 0 -8 -4 -11 -9z"/>
<path d="M5495 771 c-3 -5 -2 -12 3 -15 5 -3 9 1 9 9 0 17 -3 19 -12 6z"/>
<path d="M5619 778 c-5 -16 -4 -46 2 -42 4 2 7 13 6 24 -1 17 -5 26 -8 18z"/>
<path d="M5815 771 c-3 -5 -2 -12 3 -15 5 -3 9 1 9 9 0 17 -3 19 -12 6z"/>
<path d="M5935 771 c-6 -10 11 -24 32 -27 7 -1 15 1 18 6 2 4 -5 7 -18 6 -13
-1 -21 4 -19 12 2 14 -4 16 -13 3z"/>
<path d="M6056 771 c-3 -5 2 -15 12 -22 15 -12 16 -12 5 2 -7 9 -10 19 -6 22
3 4 4 7 0 7 -3 0 -8 -4 -11 -9z"/>
<path d="M6135 771 c-3 -5 -2 -12 3 -15 5 -3 9 1 9 9 0 17 -3 19 -12 6z"/>
<path d="M6256 771 c-3 -5 1 -14 8 -20 10 -9 16 -9 21 -1 4 6 1 9 -7 8 -7 -2
-12 3 -10 10 2 14 -4 16 -12 3z"/>
<path d="M6375 770 c-3 -5 -1 -10 4 -10 6 0 11 5 11 10 0 6 -2 10 -4 10 -3 0
-8 -4 -11 -10z"/>
<path d="M6616 772 c-2 -4 -1 -14 4 -22 7 -11 9 -9 7 8 -1 24 -3 26 -11 14z"/>
<path d="M6735 771 c-3 -5 -2 -12 3 -15 5 -3 9 1 9 9 0 17 -3 19 -12 6z"/>
<path d="M6835 770 c-3 -5 -1 -10 4 -10 6 0 11 5 11 10 0 6 -2 10 -4 10 -3 0
-8 -4 -11 -10z"/>
<path d="M7196 771 c-3 -5 1 -14 8 -20 10 -9 16 -9 21 -1 4 6 3 10 -2 9 -20
-3 -27 2 -13 11 9 6 10 10 3 10 -6 0 -14 -4 -17 -9z"/>
<path d="M7576 772 c-2 -4 -1 -14 4 -22 7 -11 9 -9 7 8 -1 24 -3 26 -11 14z"/>
<path d="M7695 771 c-3 -5 -2 -12 3 -15 5 -3 9 1 9 9 0 17 -3 19 -12 6z"/>
<path d="M8156 771 c-3 -5 1 -14 8 -20 10 -9 16 -9 21 -1 4 6 3 10 -2 9 -20
-3 -27 2 -13 11 9 6 10 10 3 10 -6 0 -14 -4 -17 -9z"/>
<path d="M8536 772 c-2 -4 -1 -14 4 -22 7 -11 9 -9 7 8 -1 24 -3 26 -11 14z"/>
<path d="M8659 778 c-5 -18 -6 -38 -1 -34 7 8 12 36 6 36 -2 0 -4 -1 -5 -2z"/>
<path d="M9015 771 c-3 -5 -2 -12 3 -15 5 -3 9 1 9 9 0 17 -3 19 -12 6z"/>
<path d="M9139 778 c-5 -16 -4 -46 2 -42 4 2 7 13 6 24 -1 17 -5 26 -8 18z"/>
<path d="M9335 771 c-3 -5 -2 -12 3 -15 5 -3 9 1 9 9 0 17 -3 19 -12 6z"/>
<path d="M9459 778 c-5 -15 -4 -50 1 -53 3 -2 6 9 6 26 0 24 -3 37 -7 27z"/>
<path d="M9655 771 c-3 -5 -2 -12 3 -15 5 -3 9 1 9 9 0 17 -3 19 -12 6z"/>
<path d="M9779 778 c-5 -16 -4 -46 2 -42 4 2 7 13 6 24 -1 17 -5 26 -8 18z"/>
<path d="M9896 771 c-3 -5 2 -15 12 -22 15 -12 16 -12 5 2 -7 9 -10 19 -6 22
3 4 4 7 0 7 -3 0 -8 -4 -11 -9z"/>
<path d="M9975 771 c-3 -5 -2 -12 3 -15 5 -3 9 1 9 9 0 17 -3 19 -12 6z"/>
<path d="M10096 771 c-3 -5 1 -14 8 -20 10 -9 16 -9 21 -1 4 6 1 9 -7 8 -7 -2
-12 3 -10 10 2 14 -4 16 -12 3z"/>
<path d="M10216 771 c-3 -5 2 -15 12 -22 15 -12 16 -12 5 2 -7 9 -10 19 -6 22
3 4 4 7 0 7 -3 0 -8 -4 -11 -9z"/>
<path d="M10295 771 c-3 -5 -2 -12 3 -15 5 -3 9 1 9 9 0 17 -3 19 -12 6z"/>
<path d="M10416 771 c-3 -5 1 -14 8 -20 10 -9 16 -9 21 -1 4 6 1 9 -7 8 -7 -2
-12 3 -10 10 2 14 -4 16 -12 3z"/>
<path d="M10536 771 c-3 -5 2 -15 12 -22 15 -12 16 -12 5 2 -7 9 -10 19 -6 22
3 4 4 7 0 7 -3 0 -8 -4 -11 -9z"/>
<path d="M10615 771 c-3 -5 -2 -12 3 -15 5 -3 9 1 9 9 0 17 -3 19 -12 6z"/>
<path d="M10739 778 c-5 -16 -4 -46 2 -42 4 2 7 13 6 24 -1 17 -5 26 -8 18z"/>
<path d="M10935 771 c-3 -5 -2 -12 3 -15 5 -3 9 1 9 9 0 17 -3 19 -12 6z"/>
<path d="M11055 771 c-6 -10 11 -24 32 -27 7 -1 15 1 18 6 2 4 -5 7 -18 6 -13
-1 -21 4 -19 12 2 14 -4 16 -13 3z"/>
<path d="M11176 771 c-3 -5 2 -15 12 -22 15 -12 16 -12 5 2 -7 9 -10 19 -6 22
3 4 4 7 0 7 -3 0 -8 -4 -11 -9z"/>
<path d="M11255 771 c-3 -5 -2 -12 3 -15 5 -3 9 1 9 9 0 17 -3 19 -12 6z"/>
<path d="M11376 771 c-3 -5 1 -14 8 -20 10 -9 16 -9 21 -1 4 6 1 9 -7 8 -7 -2
-12 3 -10 10 2 14 -4 16 -12 3z"/>
<path d="M11495 770 c-3 -5 -1 -10 4 -10 6 0 11 5 11 10 0 6 -2 10 -4 10 -3 0
-8 -4 -11 -10z"/>
<path d="M11736 772 c-2 -4 -1 -14 4 -22 7 -11 9 -9 7 8 -1 24 -3 26 -11 14z"/>
<path d="M11855 771 c-3 -5 -2 -12 3 -15 5 -3 9 1 9 9 0 17 -3 19 -12 6z"/>
<path d="M11955 770 c-3 -5 -1 -10 4 -10 6 0 11 5 11 10 0 6 -2 10 -4 10 -3 0
-8 -4 -11 -10z"/>
<path d="M12316 771 c-3 -5 1 -14 8 -20 10 -9 16 -9 21 -1 4 6 3 10 -2 9 -20
-3 -27 2 -13 11 9 6 10 10 3 10 -6 0 -14 -4 -17 -9z"/>
<path d="M12696 772 c-2 -4 -1 -14 4 -22 7 -11 9 -9 7 8 -1 24 -3 26 -11 14z"/>
<path d="M12838 773 c7 -3 16 -2 19 1 4 3 -2 6 -13 5 -11 0 -14 -3 -6 -6z"/>
<path d="M6515 759 c-4 -6 -5 -12 -2 -15 2 -3 7 2 10 11 7 17 1 20 -8 4z"/>
<path d="M7475 759 c-4 -6 -5 -12 -2 -15 2 -3 7 2 10 11 7 17 1 20 -8 4z"/>
<path d="M8435 759 c-4 -6 -5 -12 -2 -15 2 -3 7 2 10 11 7 17 1 20 -8 4z"/>
<path d="M8915 759 c-4 -6 -5 -12 -2 -15 2 -3 7 2 10 11 7 17 1 20 -8 4z"/>
<path d="M11635 759 c-4 -6 -5 -12 -2 -15 2 -3 7 2 10 11 7 17 1 20 -8 4z"/>
<path d="M12595 759 c-4 -6 -5 -12 -2 -15 2 -3 7 2 10 11 7 17 1 20 -8 4z"/>
<path d="M12813 755 c0 -8 4 -12 9 -9 5 3 6 10 3 15 -9 13 -12 11 -12 -6z"/>
<path d="M4366 748 c3 -5 10 -6 15 -3 13 9 11 12 -6 12 -8 0 -12 -4 -9 -9z"/>
<path d="M4686 748 c3 -5 10 -6 15 -3 13 9 11 12 -6 12 -8 0 -12 -4 -9 -9z"/>
<path d="M4896 743 c-6 -14 -5 -15 5 -6 7 7 10 15 7 18 -3 3 -9 -2 -12 -12z"/>
<path d="M5216 743 c-6 -14 -5 -15 5 -6 7 7 10 15 7 18 -3 3 -9 -2 -12 -12z"/>
<path d="M5646 748 c3 -5 10 -6 15 -3 13 9 11 12 -6 12 -8 0 -12 -4 -9 -9z"/>
<path d="M6176 743 c-6 -14 -5 -15 5 -6 7 7 10 15 7 18 -3 3 -9 -2 -12 -12z"/>
<path d="M6410 749 c0 -5 5 -7 10 -4 6 3 10 8 10 11 0 2 -4 4 -10 4 -5 0 -10
-5 -10 -11z"/>
<path d="M6776 743 c-6 -14 -5 -15 5 -6 7 7 10 15 7 18 -3 3 -9 -2 -12 -12z"/>
<path d="M6895 750 c3 -5 8 -10 11 -10 2 0 4 5 4 10 0 6 -5 10 -11 10 -5 0 -7
-4 -4 -10z"/>
<path d="M7370 749 c0 -5 5 -7 10 -4 6 3 10 8 10 11 0 2 -4 4 -10 4 -5 0 -10
-5 -10 -11z"/>
<path d="M8570 745 c5 -7 6 -16 2 -21 -4 -5 -3 -5 2 -1 15 12 15 34 0 34 -9 0
-11 -4 -4 -12z"/>
<path d="M8776 751 c3 -3 18 -6 34 -6 16 0 27 2 24 5 -3 3 -19 5 -35 6 -16 0
-26 -2 -23 -5z"/>
<path d="M8879 743 c-13 -16 -12 -17 4 -4 9 7 17 15 17 17 0 8 -8 3 -21 -13z"/>
<path d="M9166 748 c3 -5 10 -6 15 -3 13 9 11 12 -6 12 -8 0 -12 -4 -9 -9z"/>
<path d="M9486 748 c3 -5 10 -6 15 -3 13 9 11 12 -6 12 -8 0 -12 -4 -9 -9z"/>
<path d="M9806 748 c3 -5 10 -6 15 -3 13 9 11 12 -6 12 -8 0 -12 -4 -9 -9z"/>
<path d="M10016 743 c-6 -14 -5 -15 5 -6 7 7 10 15 7 18 -3 3 -9 -2 -12 -12z"/>
<path d="M10336 743 c-6 -14 -5 -15 5 -6 7 7 10 15 7 18 -3 3 -9 -2 -12 -12z"/>
<path d="M10766 748 c3 -5 10 -6 15 -3 13 9 11 12 -6 12 -8 0 -12 -4 -9 -9z"/>
<path d="M11296 743 c-6 -14 -5 -15 5 -6 7 7 10 15 7 18 -3 3 -9 -2 -12 -12z"/>
<path d="M11530 749 c0 -5 5 -7 10 -4 6 3 10 8 10 11 0 2 -4 4 -10 4 -5 0 -10
-5 -10 -11z"/>
<path d="M11896 743 c-6 -14 -5 -15 5 -6 7 7 10 15 7 18 -3 3 -9 -2 -12 -12z"/>
<path d="M12015 750 c3 -5 8 -10 11 -10 2 0 4 5 4 10 0 6 -5 10 -11 10 -5 0
-7 -4 -4 -10z"/>
<path d="M12490 749 c0 -5 5 -7 10 -4 6 3 10 8 10 11 0 2 -4 4 -10 4 -5 0 -10
-5 -10 -11z"/>
<path d="M4455 741 c-3 -5 -2 -12 3 -15 5 -3 9 1 9 9 0 17 -3 19 -12 6z"/>
<path d="M4613 735 c0 -8 4 -12 9 -9 5 3 6 10 3 15 -9 13 -12 11 -12 -6z"/>
<path d="M4813 735 c0 -8 4 -12 9 -9 5 3 6 10 3 15 -9 13 -12 11 -12 -6z"/>
<path d="M5453 735 c0 -8 4 -12 9 -9 5 3 6 10 3 15 -9 13 -12 11 -12 -6z"/>
<path d="M5573 735 c0 -8 4 -12 9 -9 5 3 6 10 3 15 -9 13 -12 11 -12 -6z"/>
<path d="M8973 735 c0 -8 4 -12 9 -9 5 3 6 10 3 15 -9 13 -12 11 -12 -6z"/>
<path d="M9093 735 c0 -8 4 -12 9 -9 5 3 6 10 3 15 -9 13 -12 11 -12 -6z"/>
<path d="M9413 735 c0 -8 4 -12 9 -9 5 3 6 10 3 15 -9 13 -12 11 -12 -6z"/>
<path d="M9733 735 c0 -8 4 -12 9 -9 5 3 6 10 3 15 -9 13 -12 11 -12 -6z"/>
<path d="M9933 735 c0 -8 4 -12 9 -9 5 3 6 10 3 15 -9 13 -12 11 -12 -6z"/>
<path d="M10573 735 c0 -8 4 -12 9 -9 5 3 6 10 3 15 -9 13 -12 11 -12 -6z"/>
<path d="M10693 735 c0 -8 4 -12 9 -9 5 3 6 10 3 15 -9 13 -12 11 -12 -6z"/>
<path d="M4410 736 c0 -2 7 -7 16 -10 8 -3 12 -2 9 4 -6 10 -25 14 -25 6z"/>
<path d="M4525 730 c-3 -6 1 -7 9 -4 18 7 21 14 7 14 -6 0 -13 -4 -16 -10z"/>
<path d="M4745 730 c-3 -6 1 -7 9 -4 18 7 21 14 7 14 -6 0 -13 -4 -16 -10z"/>
<path d="M4845 730 c-3 -6 1 -7 9 -4 18 7 21 14 7 14 -6 0 -13 -4 -16 -10z"/>
<path d="M5165 730 c-3 -6 1 -7 9 -4 18 7 21 14 7 14 -6 0 -13 -4 -16 -10z"/>
<path d="M5485 730 c-3 -6 1 -7 9 -4 18 7 21 14 7 14 -6 0 -13 -4 -16 -10z"/>
<path d="M5805 730 c-3 -6 1 -7 9 -4 18 7 21 14 7 14 -6 0 -13 -4 -16 -10z"/>
<path d="M6025 730 c-3 -6 1 -7 9 -4 18 7 21 14 7 14 -6 0 -13 -4 -16 -10z"/>
<path d="M6125 730 c-3 -6 1 -7 9 -4 18 7 21 14 7 14 -6 0 -13 -4 -16 -10z"/>
<path d="M6345 730 c-3 -6 1 -7 9 -4 18 7 21 14 7 14 -6 0 -13 -4 -16 -10z"/>
<path d="M6550 736 c0 -2 7 -7 16 -10 8 -3 12 -2 9 4 -6 10 -25 14 -25 6z"/>
<path d="M6690 729 c0 -5 5 -7 10 -4 6 3 10 8 10 11 0 2 -4 4 -10 4 -5 0 -10
-5 -10 -11z"/>
<path d="M6735 730 c3 -5 8 -10 11 -10 2 0 4 5 4 10 0 6 -5 10 -11 10 -5 0 -7
-4 -4 -10z"/>
<path d="M6866 732 c-3 -5 1 -9 9 -9 8 0 12 4 9 9 -3 4 -7 8 -9 8 -2 0 -6 -4
-9 -8z"/>
<path d="M6975 730 c-3 -5 -1 -10 4 -10 6 0 11 5 11 10 0 6 -2 10 -4 10 -3 0
-8 -4 -11 -10z"/>
<path d="M7270 736 c0 -2 7 -7 16 -10 8 -3 12 -2 9 4 -6 10 -25 14 -25 6z"/>
<path d="M7510 736 c0 -2 7 -7 16 -10 8 -3 12 -2 9 4 -6 10 -25 14 -25 6z"/>
<path d="M7645 730 c-3 -6 1 -7 9 -4 18 7 21 14 7 14 -6 0 -13 -4 -16 -10z"/>
<path d="M7705 730 c-3 -6 1 -7 9 -4 18 7 21 14 7 14 -6 0 -13 -4 -16 -10z"/>
<path d="M7935 730 c-3 -5 -1 -10 4 -10 6 0 11 5 11 10 0 6 -2 10 -4 10 -3 0
-8 -4 -11 -10z"/>
<path d="M8470 736 c0 -2 7 -7 16 -10 8 -3 12 -2 9 4 -6 10 -25 14 -25 6z"/>
<path d="M8605 730 c-3 -6 1 -7 9 -4 18 7 21 14 7 14 -6 0 -13 -4 -16 -10z"/>
<path d="M9005 730 c-3 -6 1 -7 9 -4 18 7 21 14 7 14 -6 0 -13 -4 -16 -10z"/>
<path d="M9325 730 c-3 -6 1 -7 9 -4 18 7 21 14 7 14 -6 0 -13 -4 -16 -10z"/>
<path d="M9535 730 c3 -5 8 -10 11 -10 2 0 4 5 4 10 0 6 -5 10 -11 10 -5 0 -7
-4 -4 -10z"/>
<path d="M9645 730 c-3 -6 1 -7 9 -4 18 7 21 14 7 14 -6 0 -13 -4 -16 -10z"/>
<path d="M9865 730 c-3 -6 1 -7 9 -4 18 7 21 14 7 14 -6 0 -13 -4 -16 -10z"/>
<path d="M9965 730 c-3 -6 1 -7 9 -4 18 7 21 14 7 14 -6 0 -13 -4 -16 -10z"/>
<path d="M10285 730 c-3 -6 1 -7 9 -4 18 7 21 14 7 14 -6 0 -13 -4 -16 -10z"/>
<path d="M10605 730 c-3 -6 1 -7 9 -4 18 7 21 14 7 14 -6 0 -13 -4 -16 -10z"/>
<path d="M10925 730 c-3 -6 1 -7 9 -4 18 7 21 14 7 14 -6 0 -13 -4 -16 -10z"/>
<path d="M11145 730 c-3 -6 1 -7 9 -4 18 7 21 14 7 14 -6 0 -13 -4 -16 -10z"/>
<path d="M11245 730 c-3 -6 1 -7 9 -4 18 7 21 14 7 14 -6 0 -13 -4 -16 -10z"/>
<path d="M11465 730 c-3 -6 1 -7 9 -4 18 7 21 14 7 14 -6 0 -13 -4 -16 -10z"/>
<path d="M11670 736 c0 -2 7 -7 16 -10 8 -3 12 -2 9 4 -6 10 -25 14 -25 6z"/>
<path d="M11810 729 c0 -5 5 -7 10 -4 6 3 10 8 10 11 0 2 -4 4 -10 4 -5 0 -10
-5 -10 -11z"/>
<path d="M11855 730 c3 -5 8 -10 11 -10 2 0 4 5 4 10 0 6 -5 10 -11 10 -5 0
-7 -4 -4 -10z"/>
<path d="M11986 732 c-3 -5 1 -9 9 -9 8 0 12 4 9 9 -3 4 -7 8 -9 8 -2 0 -6 -4
-9 -8z"/>
<path d="M12095 730 c-3 -5 -1 -10 4 -10 6 0 11 5 11 10 0 6 -2 10 -4 10 -3 0
-8 -4 -11 -10z"/>
<path d="M12390 736 c0 -2 7 -7 16 -10 8 -3 12 -2 9 4 -6 10 -25 14 -25 6z"/>
<path d="M12630 736 c0 -2 7 -7 16 -10 8 -3 12 -2 9 4 -6 10 -25 14 -25 6z"/>
<path d="M12765 730 c-3 -6 1 -7 9 -4 18 7 21 14 7 14 -6 0 -13 -4 -16 -10z"/>
<path d="M12885 730 c-3 -6 1 -7 9 -4 18 7 21 14 7 14 -6 0 -13 -4 -16 -10z"/>
<path d="M12936 728 c3 -4 11 -5 19 -1 21 7 19 12 -4 10 -11 0 -18 -5 -15 -9z"/>
</g>
</svg>
